<svg width="84" height="78" fill="none" xmlns="http://www.w3.org/2000/svg"><g clip-path="url(#clip0)" fill="#243138" stroke="#243138" stroke-width=".5"><path d="M11.497 66.878h0l-3.24-50.06a.275.275 0 010-.037.278.278 0 01-.002-.035v-5.372c0-.601.488-1.09 1.09-1.09h23.072c.602 0 1.09.489 1.09 1.09v5.373a.27.27 0 01-.002.034.29.29 0 010 .038M11.497 66.877l22-50.061-.242-.016.24.022v.004a.198.198 0 01-.003.011l.002-.006.003-.01.007.002v-.006m-22.007 50.06a3.642 3.642 0 002.546 3.227v1.3a2.496 2.496 0 00-2.186 2.472v1.61a2.5 2.5 0 002.498 2.498h13.052a2.5 2.5 0 002.497-2.498v-1.61c0-1.273-.957-2.32-2.187-2.472v-1.3a3.642 3.642 0 002.548-3.227l-.25-.016.25.016 3.24-50.06m-22.008 50.06l22.001-50.061h.007v.002m-5.416 49.917h0a1.467 1.467 0 01-1.46 1.369H15.133c-.768 0-1.41-.602-1.46-1.369h0l-3.165-48.9h20.746l-3.165 48.9zm-2.552 3.549v1.094h-9.314v-1.094h9.314zm2.187 3.591v1.61a.318.318 0 01-.317.318H14.355a.318.318 0 01-.318-.317v-1.61c0-.175.142-.318.318-.318h13.052c.175 0 .317.142.317.317zm3.603-61.412v3.192H10.435v-3.192h20.892zm7.425 4.345v-.026a.27.27 0 01-.002-.036v-5.372c0-.601.488-1.09 1.09-1.09h23.072c.602 0 1.09.489 1.09 1.09v5.372a.27.27 0 01-.002.034v.038m-25.248-.01l25.24.008-.241-.016.24.022-.001.004a.198.198 0 01-.003.011m-25.235-.029v.008l3.24 50.06h0a3.641 3.641 0 002.546 3.228v1.3a2.496 2.496 0 00-2.186 2.472v1.61a2.5 2.5 0 002.498 2.498h13.052a2.5 2.5 0 002.498-2.497v-1.61c0-1.274-.958-2.32-2.188-2.473v-1.3a3.642 3.642 0 002.548-3.227l-.25-.016.25.016L64 16.817m-25.248-.009l25.241.008H64v.002m0 0v.005l-.008-.001a.531.531 0 01-.003.009l-.002.006m0 0v.002s0 0 0 0v-.002zm-5.403 49.9h0a1.467 1.467 0 01-1.46 1.368H45.628c-.768 0-1.41-.602-1.46-1.369h0l-3.165-48.9h20.746l-3.165 48.9zm3.238-54.273v3.192H40.93v-3.192h20.892zm-5.79 57.821v1.094h-9.314v-1.094h9.314zm2.188 3.591v1.61a.318.318 0 01-.318.318H44.85a.318.318 0 01-.318-.317v-1.61c0-.175.142-.318.318-.318h13.052c.175 0 .317.142.317.317z"/></g><defs><clipPath id="clip0"><path fill="#fff" d="M0 0h84v78H0z"/></clipPath></defs></svg>