<svg width="102" height="102" fill="none" xmlns="http://www.w3.org/2000/svg"><path d="M34.488 17.263l-21.314 4.48a4.089 4.089 0 00-3.156 4.837l5.6 26.642a4.089 4.089 0 004.836 3.156l21.314-4.48a4.089 4.089 0 003.156-4.836l-5.6-26.642a4.09 4.09 0 00-4.836-3.157zm7.772 30.359a1.364 1.364 0 01-1.052 1.612l-21.314 4.48a1.364 1.364 0 01-1.612-1.052l-5.6-26.642a1.364 1.364 0 011.052-1.612l21.314-4.48a1.364 1.364 0 011.612 1.052l5.6 26.642z" fill="#243138"/><path d="M15.626 26.792l2.664-.56.56 2.664-2.664.56-.56-2.664zm5.328-1.12l2.664-.56.56 2.664-2.664.56-.56-2.664zm5.329-1.12l2.664-.56.56 2.664-2.664.56-.56-2.664zm5.328-1.12l2.665-.56.56 2.664-2.665.56-.56-2.664zM16.746 32.12l2.664-.56.56 2.665-2.664.56-.56-2.665zM22.074 31l2.664-.56.56 2.665-2.664.56-.56-2.665zm5.328-1.12l2.665-.56.56 2.665-2.665.56-.56-2.665zm5.329-1.12l2.665-.56.56 2.664-2.665.56-.56-2.664zm-14.865 8.689l2.664-.56.56 2.664-2.664.56-.56-2.664zm5.328-1.12l2.665-.56.56 2.664-2.665.56-.56-2.664zm5.329-1.12l2.664-.56.56 2.664-2.665.56-.56-2.664zm5.329-1.12l2.664-.56.56 2.664-2.664.56-.56-2.664zm-14.866 8.688l2.665-.56.56 2.664-2.665.56-.56-2.664zm5.328-1.12l2.665-.56.56 2.664-2.665.56-.56-2.664zm5.329-1.12l2.664-.56.56 2.664-2.664.56-.56-2.664zm5.329-1.12l2.664-.56.56 2.664-2.664.56-.56-2.664zm-14.866 8.688l2.665-.56.56 2.665-2.665.56-.56-2.665zm5.329-1.119l2.664-.56.56 2.664-2.664.56-.56-2.664zm5.328-1.121l2.664-.56.56 2.665-2.664.56-.56-2.665zm5.329-1.12l2.664-.56.56 2.665-2.664.56-.56-2.665z" fill="#243138"/><path d="M36.031 11.375l-26.642 5.6a6.814 6.814 0 00-5.26 8.06l6.72 31.971a6.814 6.814 0 008.06 5.26l2.665-.56a4.089 4.089 0 014.836 3.157l5.552 26.413c.74 3.525 4.014 5.981 7.452 5.594a6.836 6.836 0 004.772-2.778 6.823 6.823 0 001.145-5.387l-5.6-26.642a4.089 4.089 0 013.156-4.836l2.664-.56a6.814 6.814 0 005.26-8.061l-6.72-31.97a6.814 6.814 0 00-8.06-5.261zm12.117 37.791a4.089 4.089 0 01-3.157 4.836l-2.664.56a6.814 6.814 0 00-5.26 8.06l5.6 26.643a4.093 4.093 0 01-.688 3.234c-.682.943-1.702 1.528-2.869 1.668-2.059.231-4.029-1.285-4.484-3.45l-5.552-26.414a6.814 6.814 0 00-8.06-5.26l-2.665.56a4.089 4.089 0 01-4.836-3.157l-6.72-31.97a4.089 4.089 0 013.156-4.837l26.642-5.6a4.089 4.089 0 014.836 3.156l6.72 31.971z" fill="#243138"/><path d="M37.059 89.053l2.664-.56.56 2.664-2.664.56-.56-2.664zM59.237 9.279a2.725 2.725 0 00-3.224-2.104l-7.992 1.68a2.725 2.725 0 00-2.105 3.224l15.96 75.93a4.09 4.09 0 004.837 3.156 4.089 4.089 0 003.157-4.836l-7-33.303 2.664-.56a2.725 2.725 0 002.104-3.224l7.992-1.68-8.4-39.963-7.993 1.68zm5.736 40.523l-2.664.56a2.725 2.725 0 00-2.104 3.224l7 33.303a1.363 1.363 0 01-1.052 1.612 1.363 1.363 0 01-1.612-1.052l-15.96-75.93 7.992-1.68 8.4 39.963zm.153-38.979l.56 2.664-5.329 1.12-.56-2.664 5.329-1.12zm-.288 25.098l-.56-2.664 5.328-1.12.56 2.664-5.328 1.12zm5.888 1.544l.56 2.664-5.328 1.12-.56-2.664 5.328-1.12zm-7.008-6.872l-.56-2.665 5.328-1.12.56 2.665-5.328 1.12zm-1.12-5.329l-.56-2.664 5.328-1.12.56 2.664-5.328 1.12zm-1.12-5.328l-.56-2.665 5.328-1.12.56 2.665-5.328 1.12zm5.6 26.642l-.56-2.664 5.328-1.12.56 2.664-5.328 1.12z" fill="#243138"/><path d="M84.55 32.235a10.45 10.45 0 01-.55-3.371c.024-4.738 6.015-8.5 9.354-5.139 1.859 1.872 2.269 4.936 1.697 7.51-1 4.5-8.5 7-10.5 1zm-3.698-18.543c-.62 2.286-5.27 3.556-6.51.508-1.38-3.392 4.412-6.62 6.206-3.428.497.886.561 1.969.304 2.92z" stroke="#243138" stroke-width="2"/></svg>