<svg width="67" height="67" fill="none" xmlns="http://www.w3.org/2000/svg"><g clip-path="url(#clip0)" fill="#243138"><path d="M32.073 8.275a.983.983 0 00-1.046.913c-.076 1.119.997 4.563 3.237 6.885.698.724 1.461 1.278 2.268 1.658-1.442.735-2.877 1.32-4.51 1.32h-.016a.981.981 0 00-.002 1.964h.018c2.563 0 4.616-1.102 6.601-2.168 1.713-.92 3.331-1.788 5.16-1.874a.981.981 0 10-.093-1.961c-1.688.08-3.167.661-4.566 1.358-1.212-.019-2.345-.55-3.371-1.582-1.945-1.958-2.787-4.955-2.767-5.468a.981.981 0 00-.913-1.045zm5.117 29.822a.982.982 0 00-.41-1.92c-1.438.307-2.574.277-3.135.17-.603-1.724-1.391-3.432-3.753-4.566a.981.981 0 00-.85 1.77c1.9.912 2.343 2.227 2.956 4.046.586 1.74 1.316 3.907 3.632 5.955a.978.978 0 001.385-.085.982.982 0 00-.085-1.385c-1.388-1.227-2.078-2.472-2.567-3.7.083.002.167.005.253.005.782 0 1.667-.096 2.574-.29z"/><path d="M1.539 19.697c.784-.541 2.075-.927 3.563-1.127a31.007 31.007 0 00-3.385 7.01.981.981 0 101.863.62c.91-2.74 2.288-5.403 4.002-7.786 2.272.008 4.61.418 6.14 1.32a.981.981 0 10.997-1.69c-1.515-.894-3.543-1.388-5.631-1.548a27.361 27.361 0 011.543-1.664 106.75 106.75 0 012.484-2.388c.154.141.316.279.49.412.946.732 2.124 1.288 3 1.418a.982.982 0 10.289-1.941c-.552-.082-1.525-.537-2.31-1.212 1.833-1.602 3.782-3.101 5.875-4.327.186-.11.373-.214.56-.318 1.104.628 2.207 1.45 2.957 2.442a4.705 4.705 0 01.715 1.308c.237.696.25 1.403.043 2.136a.981.981 0 101.89.534 5.48 5.48 0 00.053-2.843c.177-.226.45-.55.684-.828 1.251-1.483 3.087-3.661 3.678-5.74.526-.033 1.057-.05 1.594-.05 3.765 0 7.226.908 10.541 2.312-1.383.883-2.584 2-3.578 2.923l-.246.229a.982.982 0 001.334 1.44l.249-.232c1.306-1.214 2.793-2.596 4.447-3.348 2.407 1.187 4.753 2.595 7.104 4.06 1.02.635 1.97 1.37 2.854 2.2a20.533 20.533 0 00-2.42 2.382c-1.199-1.376-3.405-3.056-5.495-3.71a.982.982 0 00-.586 1.874c2.169.678 4.163 2.542 4.841 3.403-2.274 3.147-3.442 6.503-3.229 9.35a.981.981 0 001.958-.148c-.196-2.61 1.129-5.955 3.544-8.944.864-1.07 1.8-2.012 2.752-2.785 1.273 1.467 2.372 3.168 3.289 5.095a.981.981 0 001.772-.844c-.963-2.024-2.118-3.823-3.451-5.39 1.064-.64 2.106-1.043 3.045-1.151a.982.982 0 00-.225-1.95c-1.327.153-2.76.726-4.188 1.64a20.306 20.306 0 00-3.423-2.688 111.218 111.218 0 00-4.802-2.857c.258.05.519.121.783.218a.981.981 0 00.676-1.842c-1.695-.623-3.27-.529-4.705-.05-3.98-1.878-8.162-3.15-12.841-3.15-.5 0-.993.014-1.477.04a3.007 3.007 0 00-.207-.628.981.981 0 00-1.784.816c-2.998.401-5.683 1.31-8.139 2.554-1.603-.777-3.091-1.181-3.78-1.181a.981.981 0 100 1.963c.263 0 .863.148 1.618.43-1.93 1.187-3.72 2.567-5.42 4.042a2.034 2.034 0 01-.069-.351.982.982 0 00-1.953.196 4.21 4.21 0 00.474 1.543 108.03 108.03 0 00-2.645 2.54 29.867 29.867 0 00-2.66 3.024c-2.501.12-4.826.696-6.167 1.621a.981.981 0 101.115 1.616zM28.863 3.729c-.722 1.527-2.212 3.294-3.002 4.23l-.086.102a7.702 7.702 0 00-.233-.328c-.668-.882-1.534-1.645-2.46-2.285a23.112 23.112 0 015.78-1.72zm24.809 31.878a.982.982 0 001.11-.833c.134-.932-.202-1.877-.97-2.734-.48-.536-1.442-1.32-2.148-1.32h-.03a.982.982 0 00-.137 1.948c.348.163 1.458 1.023 1.343 1.828a.981.981 0 00.832 1.11zm-37.205-3.208c-1.344.404-3.723 2.738-4.087 3.647a.981.981 0 001.817.742c.276-.534 2.135-2.3 2.835-2.51a.981.981 0 10-.565-1.88zm5.24 16.263c1.378 1.667 2.94 3.556 5.806 4.913a.979.979 0 001.307-.468.982.982 0 00-.467-1.306c-1.636-.774-2.78-1.753-3.747-2.785.21-.054.427-.11.652-.17 2.107-.551 4.729-1.238 5.878.146a.979.979 0 001.382.128.982.982 0 00.128-1.383c-1.948-2.345-5.38-1.446-7.886-.789-.593.155-1.16.303-1.608.381-1.887-2.282-3.872-4.616-8.862-4.968a.982.982 0 00-.138 1.958c4.212.297 5.687 2.082 7.555 4.343z"/><path d="M66.864 38.21a.982.982 0 00-1.344-.348 49.44 49.44 0 00-.868.532 40.51 40.51 0 00.062-8.756c.766-1.381 1.242-2.86 1.017-4.531a.981.981 0 00-1.841-.325c-.133-.554-.278-1.1-.437-1.64a.981.981 0 10-1.883.554 33.755 33.755 0 011.121 5.51c-.46.744-1.018 1.486-1.587 2.245l-.07.092c-.15-.194-.319-.405-.508-.642-1.535-1.921-4.105-5.137-3.16-7.633a.981.981 0 10-1.836-.695c-1.34 3.542 1.666 7.305 3.462 9.554.29.362.629.786.835 1.08-.841 1.229-1.57 2.533-1.913 4.01a.981.981 0 101.912.444c.417-1.794 1.653-3.44 2.848-5.032l.256-.342c.018.488.028.978.028 1.472 0 2.124-.166 4.143-.492 6.05-1.711 1.149-3.562 2.497-4.034 3.226a.982.982 0 001.647 1.068c.153-.223.827-.774 1.76-1.46a25.055 25.055 0 01-2.003 5.12 22.48 22.48 0 01-1.382 2.273c-1.608.48-3.12.488-4.56.028-2.186-.698-4.032-2.388-5.597-4.166 2.021-.47 4.19-.754 6.293-.965a.982.982 0 00-.195-1.953c-6.064.608-12.663 1.826-15.624 6.259a.981.981 0 001.632 1.09c1.233-1.845 3.328-3.044 5.804-3.853 1.869 2.233 4.158 4.522 7.09 5.458a9.12 9.12 0 003.301.424c-1.827 2-4.037 3.688-6.617 5.04-.595.312-1.189.634-1.796.967-1.637-.429-3.435-1.329-4.832-2.148a21.596 21.596 0 002.486-.938.982.982 0 00-.806-1.79c-2.706 1.22-5.243 1.59-7.282 1.889-1.813.265-3.379.494-4.539 1.229a.981.981 0 101.05 1.658c.808-.511 2.116-.703 3.773-.945a52.15 52.15 0 002.689-.444 31.467 31.467 0 003.432 2.007c.587.293 1.151.547 1.693.764-4.217 2.295-8.577 4.437-13.216 4.437-3.973 0-7.57-.578-10.757-1.723.154-.841.213-1.693.174-2.55.42-.066.887-.178 1.42-.307 1.467-.356 3.294-.799 4.787-.28a.981.981 0 10.643-1.855c-2.038-.707-4.266-.167-5.893.227-.382.093-.851.206-1.212.267a13.389 13.389 0 00-.835-2.564c-1.187-2.709-3.088-4.746-3.823-5.308a.982.982 0 00-1.193 1.56c.304.232 2.088 1.957 3.219 4.536.413.944.69 1.88.832 2.806a.975.975 0 00.024.158 9.267 9.267 0 01-.001 2.557 22.929 22.929 0 01-3.614-2.044.982.982 0 00-1.119 1.613 24.976 24.976 0 004.245 2.364 10.83 10.83 0 01-.785 1.676.981.981 0 101.703.977c.363-.633.666-1.28.907-1.934 3.363 1.187 7.134 1.787 11.278 1.787 5.666 0 10.934-2.9 15.582-5.46l.273-.149c.51.093.992.141 1.444.141.48 0 .928-.052 1.342-.158a.981.981 0 00.386-1.703c3.252-1.832 5.934-4.183 8.015-7.016 1.464-.531 2.978-1.379 4.554-2.55a.982.982 0 00-1.171-1.576c-.481.358-.954.68-1.418.97 1.194-2.29 2.066-4.82 2.609-7.572.75-.495 1.529-.985 2.268-1.421a.98.98 0 00.347-1.344zM9.896 52.4c.471-1.397 1.106-2.583 1.824-3.377a.982.982 0 00-1.456-1.317c-.603.667-1.122 1.494-1.554 2.397a107.708 107.708 0 00-1.772-3.3c-1.615-2.923-3.268-5.917-4.093-9.075a13.29 13.29 0 011.126-2.744l.083.084c1.418 1.444 4.368 4.448 4.368 6.715a.981.981 0 101.963 0c0-3.07-3.208-6.336-4.93-8.09L5.1 33.33c1.445-1.745 3.288-2.865 5.323-4.1.36-.219.722-.439 1.087-.665a.981.981 0 10-1.035-1.668c-.36.223-.717.44-1.07.655-2.333 1.416-4.6 2.793-6.327 5.193l-.023.03c-.005.006-.008.013-.012.02-.257.36-.501.742-.732 1.152l-.003-.189c0-1.074.082-2.176.245-3.276a.982.982 0 00-1.942-.286 24.48 24.48 0 00-.266 3.562c0 1.368.175 2.687.475 3.97-.445 1.699-.732 3.713-.82 6.137a.982.982 0 001.962.07c.03-.818.082-1.583.156-2.3.886 2.105 2.002 4.127 3.102 6.117.765 1.385 1.488 2.694 2.122 4.009.139.287.282.57.43.849-.728 2.551-.837 5.112-.268 6.155a.982.982 0 101.724-.94c-.126-.241-.212-1.248.02-2.759a23.825 23.825 0 002.422 3.012.978.978 0 001.388.035.981.981 0 00.035-1.387 22.354 22.354 0 01-3.197-4.328zM6.66 23.656a.981.981 0 001.36 1.415c.572-.549 1.73-.794 2.413-.67a.983.983 0 00.35-1.932c-1.178-.213-3.023.13-4.123 1.187zm18.315 18.857a.979.979 0 001.388.02.981.981 0 00.02-1.387c-.977-1.006-3.09-6.07-1.866-9.075.74-1.816 1.033-5.044.765-8.423-.137-1.729-.642-5.957-2.368-7.874a.981.981 0 10-1.459 1.313c.905 1.005 1.621 3.579 1.87 6.716.13 1.64.119 3.253-.016 4.631-1.849-3.174-4.636-4.376-6.297-5.09-.387-.167-.72-.31-.95-.438a.98.98 0 10-.954 1.715c.316.176.693.338 1.128.525 2.01.865 5.023 2.165 6.339 6.52-1.319 3.866.972 9.377 2.4 10.847z"/></g><defs><clipPath id="clip0"><path fill="#fff" d="M0 0h67v67H0z"/></clipPath></defs></svg>