<svg width="80" height="80" fill="none" xmlns="http://www.w3.org/2000/svg"><path d="M48.706 16.343V1.563C48.706.7 48.006 0 47.144 0H32.759c-.863 0-1.563.7-1.563 1.563v14.826c-6.776 3.282-11.46 10.23-11.46 18.25v43.798c0 .864.699 1.563 1.562 1.563h37.404c.863 0 1.563-.7 1.563-1.563V34.64c0-8.06-4.73-15.035-11.559-18.297zM34.321 3.125h11.26V5h-11.26V3.125zm0 5h11.26v7.032a20.212 20.212 0 00-5.58-.782c-1.971 0-3.877.284-5.68.81v-7.06zm22.819 68.75H22.86V34.64c0-9.451 7.69-17.14 17.14-17.14s17.14 7.689 17.14 17.14v42.235z" fill="#243138"/><path d="M49.541 58.164h-19.18a1.563 1.563 0 000 3.125h19.18a1.563 1.563 0 000-3.125zm0 6.289h-19.18a1.563 1.563 0 000 3.125h19.18a1.563 1.563 0 000-3.125zm1.494-23.646c-.862 0-1.562.7-1.562 1.562 0 5.242-4.265 9.506-9.506 9.506-5.242 0-9.506-4.264-9.506-9.506s4.264-9.506 9.506-9.506c1.19 0 2.35.217 3.447.644a1.563 1.563 0 001.133-2.912 12.577 12.577 0 00-4.58-.857c-6.965 0-12.631 5.666-12.631 12.631S33.002 55 39.966 55c6.966 0 12.632-5.666 12.632-12.63 0-.864-.7-1.563-1.563-1.563z" fill="#243138"/><path d="M50.702 35.833a1.542 1.542 0 00-.934-1.138 1.536 1.536 0 00-1.195 0 1.58 1.58 0 00-.7.575 1.442 1.442 0 00-.144.27 1.533 1.533 0 00.144 1.464 1.5 1.5 0 00.43.433 1.58 1.58 0 00.563.233 1.538 1.538 0 00.61 0 1.576 1.576 0 00.993-.665 1.584 1.584 0 00.264-.868c0-.101-.01-.204-.031-.304z" fill="#243138"/></svg>