<svg width="94" height="94" fill="none" xmlns="http://www.w3.org/2000/svg"><path d="M81.924 42.397a23.267 23.267 0 00-1.715-1.546 22.943 22.943 0 005.853-15.326v-5.088a1.562 1.562 0 00-1.562-1.562h-9.375V9.5a1.563 1.563 0 00-1.563-1.563h-5.087c-1.878 0-3.748.23-5.57.683a23.192 23.192 0 00-3.461-4.42L55.93.598a1.562 1.562 0 00-1.106-.472A1.526 1.526 0 0053.71.58L42.299 11.927a23.3 23.3 0 00-1.578 1.746 22.94 22.94 0 00-15.195-5.736h-5.087A1.563 1.563 0 0018.875 9.5v9.375H9.5a1.563 1.563 0 00-1.563 1.562v5.088c0 1.808.213 3.609.633 5.367a23.23 23.23 0 00-4.49 3.51L.583 37.898a1.562 1.562 0 000 2.21l11.493 11.494a23.3 23.3 0 001.715 1.546 22.943 22.943 0 00-5.854 15.326v5.088A1.562 1.562 0 009.5 75.125h9.375V84.5a1.562 1.562 0 001.563 1.562h5.087c1.878 0 3.748-.23 5.57-.682a23.193 23.193 0 003.461 4.419l3.513 3.604a1.562 1.562 0 001.106.472h.013c.412 0 .808-.164 1.101-.455l11.413-11.347c.555-.556 1.08-1.14 1.575-1.75a22.94 22.94 0 0015.198 5.74h5.088a1.562 1.562 0 001.562-1.563v-9.375H84.5a1.562 1.562 0 001.563-1.563v-5.088c0-1.807-.213-3.608-.633-5.366a23.225 23.225 0 004.49-3.51l3.497-3.497a1.562 1.562 0 000-2.21L81.924 42.398zm1.013-16.872a19.935 19.935 0 01-19.912 19.912H59.4a12.434 12.434 0 00-2.53-6.096l2.568-2.568a22.867 22.867 0 006.688-14.631 20.23 20.23 0 012.35-.142h14.463v3.525zM47 56.375A9.375 9.375 0 1156.375 47 9.386 9.386 0 0147 56.375zm21.475-45.313H72v7.813h-3.525c-.782 0-1.562.04-2.34.119a22.91 22.91 0 00-1.767-7.504 20 20 0 014.107-.428zm-13.68-7.154l2.418 2.48.014.015a19.935 19.935 0 010 28.16l-2.568 2.568a12.436 12.436 0 00-6.096-2.53v-3.627a22.94 22.94 0 00-5.626-15.068 20.087 20.087 0 011.567-1.765L54.795 3.908zM22 11.062h3.525a19.935 19.935 0 0119.913 19.912v3.627a12.528 12.528 0 00-10.604 9.54A19.989 19.989 0 0122 25.525V11.062zM11.062 25.525V22h7.813v3.525c0 .732.039 1.458.108 2.176a22.816 22.816 0 00-7.533 1.735 20.029 20.029 0 01-.387-3.91zM3.897 39.004L6.29 36.61a19.692 19.692 0 0113.207-5.805 23.195 23.195 0 0010.847 14.64 22.934 22.934 0 00-14.303 5.502 20.175 20.175 0 01-1.755-1.556L3.897 39.003zm7.165 29.47a19.935 19.935 0 0119.913-19.912H34.6a12.434 12.434 0 002.53 6.096l-2.568 2.569a22.867 22.867 0 00-6.688 14.63c-.78.094-1.564.141-2.35.143H11.063v-3.526zm14.463 14.463H22v-7.812h3.525c.782 0 1.562-.04 2.34-.12.16 2.584.758 5.121 1.767 7.505-1.35.284-2.727.427-4.107.427zm13.68 7.154l-2.418-2.48-.014-.014a19.912 19.912 0 010-28.16l2.568-2.569a12.436 12.436 0 006.096 2.53v3.627a22.94 22.94 0 005.624 15.066c-.487.62-1.01 1.21-1.565 1.768L39.205 90.091zM72 82.937h-3.525a19.935 19.935 0 01-19.912-19.912V59.4a12.528 12.528 0 0010.603-9.54A19.99 19.99 0 0172 68.474v14.463zm10.938-14.463V72h-7.813v-3.526c0-.732-.04-1.458-.108-2.177a22.817 22.817 0 007.534-1.733c.256 1.287.386 2.597.386 3.91zM87.71 57.39a19.7 19.7 0 01-13.207 5.805 23.195 23.195 0 00-10.847-14.64 22.934 22.934 0 0014.303-5.503c.614.485 1.2 1.004 1.755 1.556l10.389 10.389-2.393 2.393z" fill="#243138"/></svg>