<svg width="70" height="89" fill="none" xmlns="http://www.w3.org/2000/svg"><path d="M68.853 13.826l-9.843-2.448-2.462-9.793a1.257 1.257 0 00-1.22-.949c-.578 0-1.082.391-1.222.949l-1.949 7.757a15.731 15.731 0 00-7.149-1.677l-.203.001c-3.451.015-6.632 1.82-8.509 4.826a6.746 6.746 0 01-5.757 3.19 6.746 6.746 0 01-5.758-3.19c-1.877-3.007-5.058-4.81-8.508-4.826h-.205l-.07-.001C7.5 7.665.42 14.515.197 22.966a15.68 15.68 0 00.713 5.113l5.613 17.456c.005 6.831 1.462 17.221 4.68 24.131l7.213 15.49c.621 1.796 2.273 3.008 4.135 3.025a4.36 4.36 0 003.13-1.263 4.324 4.324 0 001.3-3.102c0-.116-.017-.232-.05-.343-1.428-4.983-4.29-19.03-.435-24.112.96-1.265 2.282-1.88 4.042-1.88 1.716 0 3.01.602 3.956 1.842 3.844 5.039 1.053 19.083-.347 24.07-.03.109-.046.222-.046.337 0 2.265 1.805 4.255 4.024 4.437a4.37 4.37 0 004.512-2.925l7.248-15.587c3.21-6.904 4.663-17.286 4.667-24.12L60.17 28.07a15.652 15.652 0 00-.092-9.631l8.775-2.183c.56-.14.954-.64.954-1.215 0-.575-.393-1.076-.954-1.215zM57.73 16.441a1.256 1.256 0 00-.98.925l-1.423 5.664-.48-1.912a1.26 1.26 0 00-2.443.608l1.702 6.771c.14.558.644.948 1.221.948.578 0 1.082-.39 1.222-.948l1.709-6.801a13.156 13.156 0 01-.488 5.62l-5.675 17.642c-.04.125-.06.27-.06.4.023 6.553-1.355 16.622-4.434 23.245L40.324 84.25a1.13 1.13 0 00-.055.14 1.867 1.867 0 01-1.936 1.279c-.866-.07-1.631-.892-1.707-1.795.578-2.125 5.031-19.305-.125-26.066-1.434-1.88-3.44-2.833-5.962-2.833-2.568 0-4.604.967-6.051 2.876-5.165 6.808-.622 23.982-.03 26.114a1.866 1.866 0 01-1.882 1.71c-.793-.007-1.529-.57-1.79-1.37a1.232 1.232 0 00-.055-.14l-7.243-15.553c-2.821-6.059-4.217-14.996-4.42-21.497 3.447 1.123 11.621 3.389 21.471 3.389 4.891 0 9.985-.575 15.14-1.708a1.252 1.252 0 10-.544-2.445c-.617.135-1.234.263-1.85.382l2.746-6.93a1.25 1.25 0 00-.71-1.625 1.26 1.26 0 00-1.632.706l-3.308 8.35c-3.345.508-6.64.765-9.842.765-3.613 0-7.016-.326-10.024-.788l-3.299-8.327a1.261 1.261 0 00-1.632-.706 1.25 1.25 0 00-.71 1.624l2.734 6.903c-4.39-.858-7.587-1.902-8.814-2.332l-5.483-17.05a13.16 13.16 0 01-.595-4.292c.187-7.125 6.18-12.895 13.34-12.862h.205c2.58.012 4.965 1.374 6.381 3.643a9.25 9.25 0 007.897 4.373 9.25 9.25 0 007.896-4.373c1.417-2.27 3.802-3.631 6.381-3.642l.204-.001h.06a13.2 13.2 0 015.88 1.379l-9.16 2.278c-.56.14-.953.64-.953 1.215 0 .575.393 1.076.953 1.215l7.98 1.985a1.252 1.252 0 10.61-2.43l-3.094-.77 5.629-1.4c.47-.091.858-.445.979-.925l1.423-5.663 1.407 5.599c.092.465.446.853.93.974l5.693 1.415-5.628 1.4z" fill="#243138"/></svg>