<svg width="102" height="102" fill="none" xmlns="http://www.w3.org/2000/svg"><path d="M92.867 43.171h-29.17a12.1 12.1 0 00-7.86-7.24c-.276-4.734-3.346-8.976-7.886-10.655a12.074 12.074 0 00-6.95-.433 8.88 8.88 0 00-7.567-4.248 8.818 8.818 0 00-7.425 4.019 10.164 10.164 0 00-1.938-.186c-5.582 0-10.124 4.542-10.124 10.124 0 .27.01.538.032.806a9.266 9.266 0 00-5.052 5.327 9.342 9.342 0 00-.564 2.709C5.283 44.184 3 46.982 3 50.304v.046c0 3.336 2.302 6.144 5.4 6.92v6.04c0 10.633 6.358 19.808 15.47 23.926a6.705 6.705 0 006.533 8.173c3.41 0 6.232-2.56 6.645-5.86h28.904a6.706 6.706 0 006.645 5.86 6.705 6.705 0 006.532-8.173C88.242 83.118 94.6 73.943 94.6 63.31v-6.04c3.099-.776 5.401-3.584 5.401-6.92v-.045c0-3.934-3.2-7.134-7.133-7.134zM12.48 42a5.506 5.506 0 014.03-3.489 1.894 1.894 0 001.434-2.336 6.342 6.342 0 018.36-7.552c.962.363 2.04-.11 2.425-1.064a5.05 5.05 0 014.704-3.174 5.08 5.08 0 014.783 3.381 1.895 1.895 0 002.483 1.131 8.295 8.295 0 015.937-.066c3.481 1.287 5.704 4.766 5.405 8.46a1.895 1.895 0 001.605 2.025 8.309 8.309 0 015.837 3.856H12.187A5.56 5.56 0 0112.481 42zm17.923 49.62a2.911 2.911 0 01-2.904-3.055c1.856.524 3.763.84 5.7.945a2.913 2.913 0 01-2.796 2.11zm42.194 0a2.913 2.913 0 01-2.797-2.11 26.144 26.144 0 005.7-.945 2.911 2.911 0 01-2.904 3.055zm-3.657-5.868h-.005l-.13.003h-.025l-.107.002h-.039l-.099.002h-34.07l-.099-.001h-.039l-.107-.002-.026-.001-.13-.003h-.004c-12.112-.309-21.87-10.258-21.87-22.443v-.458h54.828a1.895 1.895 0 100-3.79H12.19v-1.579h78.62v5.827c0 12.185-9.758 22.135-21.87 22.443zM96.21 50.35c0 1.844-1.5 3.344-3.343 3.344H10.133A3.348 3.348 0 016.79 50.35v-.045c0-1.844 1.5-3.345 3.345-3.345h82.733c1.844 0 3.344 1.5 3.344 3.345v.045zM76 21.25a2 2 0 100 4v-4zm18.5 4a2 2 0 100-4v4zm-18.5 0h9.25v-4H76v4zm9.25 0h9.25v-4h-9.25v4z" fill="#243138"/><path d="M83.25 32.5a2 2 0 104 0h-4zm4-18.5a2 2 0 10-4 0h4zm0 18.5v-9.25h-4v9.25h4zm0-9.25V14h-4v9.25h4z" fill="#243138"/></svg>