<svg width="84" height="84" fill="none" xmlns="http://www.w3.org/2000/svg"><circle cx="42" cy="42" r="40" stroke="#243138" stroke-width="4"/><path d="M51.151 14.612a2 2 0 10-2.828 2.829l2.828-2.829zm3.803 9.46a2 2 0 002.829-2.828l-2.829 2.828zM14.63 42.103a2 2 0 003.898.9l-3.898-.9zm23.84-10.47a2 2 0 00-3.992-.266l3.991.266zm1.192 29.24a2 2 0 102.465 3.15l-2.465-3.15zm15.176-6.798a2 2 0 10-2.465-3.15l2.465 3.15zm-6.515-36.634l6.631 6.631 2.829-2.828-6.632-6.632-2.828 2.829zM18.528 43.002c.182-.79.794-2.016 2-2.857 1.13-.788 3.005-1.39 6.066-.626l.97-3.88c-4.013-1.004-7.111-.318-9.324 1.225-2.138 1.49-3.24 3.634-3.61 5.239l3.898.9zm8.066-3.483c4.086 1.022 7.136.114 9.157-1.843 1.897-1.836 2.604-4.324 2.718-6.043l-3.99-.266c-.07 1.045-.524 2.48-1.51 3.435-.861.834-2.417 1.584-5.405.837l-.97 3.88zm15.533 24.503l12.711-9.947-2.465-3.15-12.71 9.947 2.465 3.15z" fill="#243138"/><circle cx="63.552" cy="37.026" r="2.763" fill="#243138"/><circle cx="29.29" cy="56.921" r="2.763" fill="#243138"/><circle cx="29.29" cy="19.342" r="2.763" fill="#243138"/><path d="M9.947 63l63-44.21" stroke="#243138" stroke-width="7"/></svg>