<svg width="102" height="102" fill="none" xmlns="http://www.w3.org/2000/svg"><g clip-path="url(#clip0)" fill="#243138"><path d="M94.772 54.602a1.524 1.524 0 00-2.485 1.765 5.883 5.883 0 01-.234 7.093 5.873 5.873 0 01-8.252.855 5.83 5.83 0 01-2.137-3.95 5.829 5.829 0 011.281-4.303 5.857 5.857 0 016.203-1.933 1.524 1.524 0 10.855-2.927 8.899 8.899 0 00-9.424 2.938c-3.1 3.816-2.516 9.442 1.3 12.541a8.91 8.91 0 008.064 1.65 8.866 8.866 0 004.477-2.95 8.94 8.94 0 00.352-10.78z"/><path d="M96.114 48.299a14.303 14.303 0 00-9.803-2.815 14.29 14.29 0 00-11.182 7.023L58.812 39.255l-3.271-31.57a25.684 25.684 0 017.75 15.863l1.86 17.948a1.524 1.524 0 003.032-.314l-1.86-17.949A28.732 28.732 0 0054.529 2.886a1.523 1.523 0 00-2.406 1.394l3.343 32.257-11.507-9.345a1.525 1.525 0 00-1.922 2.366l25.942 21.07-2.168 6.063-24.68-20.044a25.68 25.68 0 01-9.036-15.164l5.921 4.81a1.525 1.525 0 001.922-2.367l-8.825-7.168a1.524 1.524 0 00-2.484 1.253 28.731 28.731 0 0010.58 21.002l18.03 14.644.729 7.026a14.34 14.34 0 00-2.173.06 14.245 14.245 0 00-9.652 5.223 14.246 14.246 0 00-3.132 10.518 14.245 14.245 0 005.223 9.652 14.244 14.244 0 0010.517 3.132 14.507 14.507 0 002.466-.473 14.234 14.234 0 007.187-4.75 14.246 14.246 0 003.132-10.518L70.6 64.51l7.697 6.251a14.55 14.55 0 0010.765 3.2 14.59 14.59 0 002.456-.473 14.07 14.07 0 007.136-4.717A14.227 14.227 0 00101.73 58a14.236 14.236 0 00-5.616-9.701zM68.503 73.84c.31 3-.565 5.942-2.466 8.282a11.219 11.219 0 01-7.6 4.112c-3 .31-5.94-.565-8.281-2.466a11.215 11.215 0 01-4.113-7.6c-.31-3 .565-5.94 2.467-8.281a11.217 11.217 0 017.6-4.113 11.277 11.277 0 013.284.14 1.525 1.525 0 001.803-1.654l-.61-5.885 6.667 5.415 1.249 12.05zm30.2-15.467c.38 3.066-.48 6.077-2.42 8.48-1.867 2.312-4.545 3.758-7.54 4.073a11.522 11.522 0 01-8.523-2.534l-10.55-8.568a.156.156 0 00-.008-.006l-1.341-1.09 2.168-6.063 4.196 3.407a1.524 1.524 0 002.37-.603 11.306 11.306 0 012.266-3.493 11.244 11.244 0 017.243-3.454 11.252 11.252 0 017.717 2.211 11.211 11.211 0 014.422 7.64z"/><path d="M56.354 66.138a8.856 8.856 0 00-6.002 3.247 8.857 8.857 0 00-1.947 6.54c.507 4.89 4.897 8.455 9.787 7.948a8.853 8.853 0 006.001-3.247 8.857 8.857 0 001.948-6.54c-.507-4.89-4.898-8.455-9.787-7.948zm6.754 8.263a5.872 5.872 0 01-5.23 6.44 5.873 5.873 0 01-6.44-5.23 5.873 5.873 0 015.23-6.44 5.873 5.873 0 016.44 5.23zm-.047-25.82a1.539 1.539 0 00-1.636.713 1.54 1.54 0 00.324 1.936c1.023.882 2.64.013 2.502-1.319a1.533 1.533 0 00-1.19-1.33zM39.77 59.967l-.028-.056a4.306 4.306 0 00-5.047-2.255l-7.456 2.114c-1.354.384-2.743.225-3.733-.348l9.581-2.717a1.524 1.524 0 10-.832-2.933l-10.668 3.025a90.411 90.411 0 01-1.202-2.376l10.326-2.928a1.524 1.524 0 00-.832-2.933l-10.803 3.063a89.607 89.607 0 01-1.037-2.42l10.795-3.062a1.525 1.525 0 00-.832-2.933L16.925 46.35a88.03 88.03 0 01-.875-2.47l11.239-3.187a1.524 1.524 0 00-.832-2.933L15.12 40.975a86.992 86.992 0 01-.713-2.515l11.445-3.246a1.524 1.524 0 00-.832-2.933L13.673 35.5c-.196-.85-.38-1.703-.551-2.559l11.41-3.236a1.525 1.525 0 00-.832-2.933l-11.128 3.156a88.792 88.792 0 01-.387-2.607l11.148-3.162a1.525 1.525 0 00-.832-2.933L11.83 24.253a90.603 90.603 0 01-.224-2.654l10.668-3.025a1.525 1.525 0 00-.832-2.934l-9.581 2.718c.542-1.007 1.64-1.873 2.994-2.257l7.456-2.114a4.304 4.304 0 003.112-4.571l-.006-.056a4.296 4.296 0 00-1.86-3.138 4.3 4.3 0 00-3.603-.584L5.98 9.601C2.6 10.56.266 13.694.305 17.224.38 23.837 2.863 38.57 14.267 71.199a1.524 1.524 0 102.878-1.006C8.227 44.675 3.457 26.347 3.355 17.189a4.782 4.782 0 013.457-4.655l13.973-3.962c.493-.14.872.047 1.054.17.181.125.493.408.546.937l.003.04a1.258 1.258 0 01-.91 1.336l-7.455 2.114c-3.38.959-5.722 3.83-5.57 6.828.71 14.073 4.51 27.47 11.292 39.82 1.445 2.631 4.947 3.846 8.326 2.887l7.456-2.114a1.259 1.259 0 011.475.658l.027.056c.225.46.108.865.018 1.065-.089.2-.313.558-.805.698l-4.907 1.391c-2.825.802-4.572 3.682-3.978 6.558l4.498 21.77a3.023 3.023 0 01-2.128 3.507 2.998 2.998 0 01-3.63-1.809 799.77 799.77 0 01-7.103-19.065 1.525 1.525 0 00-2.87 1.028 803.991 803.991 0 007.13 19.139 6.034 6.034 0 007.305 3.64c3.04-.862 4.92-3.962 4.282-7.057L30.343 70.4a2.592 2.592 0 011.824-3.007L37.074 66a4.299 4.299 0 002.757-2.388 4.297 4.297 0 00-.062-3.645z"/></g><defs><clipPath id="clip0"><path fill="#fff" transform="rotate(-15.834 43.424 25.817)" d="M0 0h92.93v92.93H0z"/></clipPath></defs></svg>