<svg width="89" height="83" fill="none" xmlns="http://www.w3.org/2000/svg"><path d="M31.461 24.982c5.783 0 9.563-6.043 9.563-12.17C41.023 6.67 37.233.64 31.46.64c-5.783 0-9.563 6.042-9.563 12.17 0 6.141 3.79 12.17 9.563 12.17zm0-20.864c3.299 0 6.085 3.98 6.085 8.693 0 4.712-2.786 8.693-6.085 8.693s-6.085-3.98-6.085-8.693c0-4.712 2.787-8.693 6.085-8.693zM57.54 24.982c5.783 0 9.563-6.043 9.563-12.17C67.103 6.67 63.313.64 57.54.64c-5.783 0-9.563 6.042-9.563 12.17 0 6.141 3.79 12.17 9.563 12.17zm0-20.864c3.299 0 6.085 3.98 6.085 8.693 0 4.712-2.786 8.693-6.085 8.693-3.298 0-6.085-3.98-6.085-8.693 0-4.712 2.787-8.693 6.085-8.693zM16.365 44.215c5.018-2.894 5.256-10.023 2.197-15.32-3.069-5.32-9.365-8.647-14.366-5.76-5.005 2.889-5.264 10.01-2.197 15.321 3.067 5.312 9.388 8.635 14.366 5.76zM5.934 26.147c3.335-1.925 7.654 1.085 9.616 4.485 1.957 3.39 2.418 8.644-.923 10.572-3.335 1.926-7.656-1.09-9.616-4.486-1.958-3.392-2.415-8.645.923-10.571zm66.701 18.068c5.008 2.892 11.303-.45 14.367-5.759 3.086-5.344 2.779-12.45-2.196-15.32-5.024-2.9-11.315.47-14.366 5.758-3.077 5.329-2.799 12.44 2.195 15.32zm.816-13.583c1.95-3.38 6.271-6.417 9.617-4.485 3.335 1.925 2.883 7.175.923 10.57-1.957 3.39-6.277 6.416-9.617 4.486-3.33-1.921-2.89-7.164-.923-10.57zm.086 44.248a1.739 1.739 0 100-3.477 1.739 1.739 0 000 3.478z" fill="#243138"/><path d="M11.679 67.477c.997 7.304 6.146 13.22 14.038 14.605 5.017.88 9.819-.374 13.596-3.223a8.655 8.655 0 0110.376 0c3.89 2.934 8.718 4.078 13.596 3.223 1.996-.35 3.856-.994 5.53-1.914a1.739 1.739 0 10-1.673-3.048c-1.34.736-2.84 1.253-4.458 1.537-3.918.687-7.79-.227-10.902-2.574-4.287-3.232-10.276-3.232-14.563 0-3.112 2.347-6.984 3.26-10.901 2.574-7.255-1.274-10.539-6.853-11.194-11.65-.852-6.243 2.079-11.938 7.468-14.51 2.49-1.19 4.48-3.125 5.603-5.45 3.518-7.285 9.614-11.634 16.306-11.634 6.69 0 12.787 4.35 16.306 11.634 1.123 2.325 3.112 4.26 5.603 5.451 4.91 2.344 7.82 7.35 7.594 13.067a1.739 1.739 0 103.474.138c.283-7.129-3.384-13.391-9.57-16.343-1.779-.85-3.19-2.21-3.97-3.826C60.142 37.677 53.04 31.936 44.5 31.936c-8.546 0-15.645 5.747-19.437 13.598-.781 1.617-2.192 2.976-3.97 3.826-7.058 3.368-10.411 10.821-9.415 18.117z" fill="#243138"/></svg>