<svg width="78" height="78" fill="none" xmlns="http://www.w3.org/2000/svg"><g clip-path="url(#clip0)"><path d="M39.72 74.846l-.033.025-.032.026c-.379.309-.92.302-1.276.015h0l-.015-.013-.06-.05c-.849-.7-7.479-6.173-14.189-13.87C14.383 49.784 9.77 40.101 9.77 32.114v-.868C9.77 15.12 22.89 2 39.016 2 55.14 2 68.26 15.12 68.26 31.246v.868c0 7.987-4.613 17.686-14.361 28.865h0c-3.513 4.03-7.005 7.459-9.658 9.91a116.533 116.533 0 01-3.235 2.883 68.45 68.45 0 01-.944.794c-.242.2-.35.285-.343.28z" stroke="#243138" stroke-width="4"/><path d="M42.023 29.008v7.008h-7.007v-7.008h-7.008v7.008H21v-7.008h7.008V22h7.008v7.008h7.007V22h7.008v7.008h-7.008zm14.031 0v7.008h-7.008v-7.008h7.008z" fill="#243138"/></g><defs><clipPath id="clip0"><path fill="#fff" d="M0 0h78v78H0z"/></clipPath></defs></svg>