<svg width="18" height="16" fill="none" xmlns="http://www.w3.org/2000/svg"><path d="M9 2.648c-.882 0-1.689.083-2.416.247l-2.2-1.516a1.298 1.298 0 00-2.035 1.073l.011 3.823c-.276.726-.418 1.553-.418 2.476 0 3.906 2.541 6.103 7.058 6.103 4.517 0 7.058-2.197 7.058-6.103 0-.923-.142-1.75-.418-2.476l.011-3.823a1.298 1.298 0 00-2.034-1.073l-2.2 1.516A11.005 11.005 0 009 2.648z" fill="#fff"/><path fill-rule="evenodd" clip-rule="evenodd" d="M4.916 14.089a.91.91 0 011.155-.57c.809.273 1.784.424 2.929.424 1.144 0 2.12-.151 2.928-.425a.91.91 0 11.585 1.726c-1.035.35-2.214.52-3.513.52-1.3 0-2.479-.17-3.513-.52a.91.91 0 01-.571-1.155zM3.866 2.13a.387.387 0 00-.606.32l.011 3.822a.911.911 0 11-1.822.006l-.011-3.823C1.433.672 3.432-.382 4.9.629l1.882 1.297A12.343 12.343 0 019 1.736c.786 0 1.527.063 2.219.19L13.1.629c1.468-1.011 3.468.043 3.463 1.826l-.012 3.823a.911.911 0 01-1.822-.006l.012-3.823a.387.387 0 00-.607-.32l-2.2 1.517a.911.911 0 01-.718.138A10.099 10.099 0 009 3.56c-.825 0-1.564.078-2.216.225a.911.911 0 01-.717-.138l-2.2-1.517zM.023 9.229c0-.503.408-.911.91-.911h3.443a.911.911 0 110 1.822H.934a.911.911 0 01-.911-.911zm1.159 4.855a.911.911 0 01.26-1.262l2.874-1.894a.911.911 0 011.002 1.521l-2.874 1.895a.911.911 0 01-1.262-.26zm16.795-4.855a.91.91 0 00-.91-.911h-3.443a.911.911 0 000 1.822h3.443a.91.91 0 00.91-.911zm-1.158 4.855a.911.911 0 00-.26-1.262l-2.874-1.894a.911.911 0 00-1.002 1.521l2.874 1.895c.42.277.985.16 1.262-.26zM9.772 11.37a1.098 1.098 0 01-1.544 0l-.622-.616c-.132-.13-.27-.3-.37-.512a1.353 1.353 0 01-.1-.892c.1-.418.358-.677.63-.825.261-.142.534-.184.703-.193a9.9 9.9 0 011.062 0c.17.009.441.05.703.193.271.148.53.407.63.825a1.35 1.35 0 01-.1.892c-.1.212-.239.382-.37.512l-.622.615z" fill="#243138"/></svg>