<svg width="20" height="20" fill="none" xmlns="http://www.w3.org/2000/svg"><path d="M3.618 9.895a42.635 42.635 0 01-1.08-.116 1.517 1.517 0 01-1.329-1.332c-.09-.805-.176-1.637-.176-2.49v-.079C1.047 3.711 2.956 1.944 5.09 1.95a3.813 3.813 0 011.959.566c.21-.055.426-.095.647-.118A22.502 22.502 0 0110 2.266c.78 0 1.548.055 2.304.132.221.023.437.063.647.118a3.978 3.978 0 012.103-.566c2.1.013 3.9 1.828 3.913 3.928v.08c0 .852-.087 1.684-.176 2.489a1.517 1.517 0 01-1.328 1.332 39.34 39.34 0 01-1.081.116 65.42 65.42 0 01-.12 2.774c-.172 2.792-2.368 5.185-5.16 5.347a18.302 18.302 0 01-2.202 0c-2.794-.162-4.99-2.555-5.162-5.347a63.742 63.742 0 01-.12-2.774z" fill="#fff" stroke="#243138" stroke-width="2" stroke-linejoin="round"/><path d="M9.546 12.778a1 1 0 100 2v-2zm.907 2a1 1 0 100-2v2zm-.907 0h.907v-2h-.907v2zm-5.932-3.88a1 1 0 010-2v2zM5.74 6.693a1 1 0 112 0h-2zm-.067 3.043l.118.993-.118-.993zm-2.058-.838c.636 0 1.265-.075 1.94-.155l.236 1.986c-.653.077-1.4.169-2.176.169v-2zM7.74 6.693c0 .791-.085 1.555-.159 2.231l-1.988-.218c.076-.693.147-1.349.147-2.013h2zm-2.185 2.05a.043.043 0 00.026-.014.038.038 0 00.012-.023l1.988.218a2.046 2.046 0 01-1.79 1.805l-.236-1.986zm10.831 2.155a1 1 0 000-2v2zM14.26 6.693a1 1 0 10-2 0h2zm2.125 2.205c-.636 0-1.265-.075-1.94-.155l-.236 1.986c.653.077 1.4.169 2.176.169v-2zM12.26 6.693c0 .791.085 1.555.159 2.231l1.988-.218c-.076-.693-.147-1.349-.147-2.013h-2zm2.185 2.05a.043.043 0 01-.026-.014.038.038 0 01-.012-.023l-1.988.218c.103.945.85 1.693 1.79 1.805l.236-1.986z" fill="#243138"/></svg>