<svg width="20" height="20" fill="none" xmlns="http://www.w3.org/2000/svg"><path d="M18.698 5.293l-.994.106.994-.106zM14.734 1.32l.11-.994-.11.994zm0 17.362l-.111-.994.11.994zm3.964-3.974l-.994-.107.994.107zM5.266 1.319l-.11-.994.11.994zM1.302 5.293l.994.106-.994-.106zm3.964 13.388l.11-.994-.11.994zm-3.964-3.974l.994-.107-.994.107zM10 18c-1.555 0-3.092-.142-4.623-.313l-.222 1.988C6.704 19.848 8.33 20 10 20v-2zm4.623-.313C13.091 17.858 11.555 18 10 18v2c1.67 0 3.296-.152 4.845-.325l-.222-1.988zm5.07-2.874c.164-1.54.307-3.156.307-4.813h-2c0 1.549-.134 3.079-.296 4.6l1.988.213zM20 10c0-1.657-.143-3.272-.308-4.813l-1.988.212C17.866 6.921 18 8.451 18 10h2zM10 2c1.555 0 3.091.142 4.623.313l.222-1.988C13.294.152 11.668 0 10 0v2zm-4.623.313C6.908 2.142 8.445 2 10 2V0C8.33 0 6.704.152 5.155.325l.222 1.988zM.307 5.187C.143 6.727 0 8.343 0 10h2c0-1.549.133-3.079.296-4.6L.307 5.186zM0 10c0 1.657.143 3.272.307 4.813l1.99-.213C2.132 13.08 2 11.55 2 10H0zm19.692-4.813c-.272-2.544-2.31-4.58-4.848-4.862l-.221 1.988a3.51 3.51 0 013.08 3.086l1.99-.212zm-4.848 14.488c2.538-.283 4.576-2.319 4.848-4.862l-1.988-.213a3.51 3.51 0 01-3.081 3.087l.222 1.988zM5.155.325C2.618.608.58 2.643.307 5.187l1.99.212a3.51 3.51 0 013.08-3.086L5.155.325zm.222 17.362a3.51 3.51 0 01-3.08-3.087l-1.99.213a5.51 5.51 0 004.848 4.862l.222-1.988z" fill="#243138"/><path d="M12.25 8.74a2.25 2.25 0 100-4.5 2.25 2.25 0 000 4.5zm-6.984 9.941c-2.074-.231-3.742-1.9-3.964-3.974-.135-1.259-.252-2.545-.29-3.853a11.35 11.35 0 011.773-.134 10.599 10.599 0 0110.542 8.107A35.833 35.833 0 0110 19c-1.612 0-3.194-.147-4.734-.319z" stroke="#243138" stroke-width="2" stroke-linecap="round" stroke-linejoin="round"/><path d="M13.327 18.827c.472-.044.941-.094 1.406-.146a4.511 4.511 0 003.965-3.974l.071-.694a11.23 11.23 0 00-3.024-.413c-1.55-.003-3.083.31-4.507.922v.095a10.6 10.6 0 012.089 4.21z" stroke="#243138" stroke-width="2" stroke-linecap="round" stroke-linejoin="round"/></svg>