<svg width="24" height="24" fill="none" xmlns="http://www.w3.org/2000/svg"><path d="M14.782 12.1l-.994.107.994-.106zM11.92 9.23l.111-.993-.11.993zm0 12.54l-.11-.994.11.994zm2.863-2.87l-.994-.107.994.107zm-9.7-9.67l-.111-.993.11.993zM2.217 12.1l.995.107-.995-.106zm2.863 9.67l.111-.994-.11.994zM2.218 18.9l.995-.107-.995.107zM8.5 21c-1.107 0-2.204-.1-3.308-.224l-.221 1.988c1.12.125 2.307.236 3.53.236v-2zm3.308-.224C10.705 20.9 9.608 21 8.5 21v2c1.222 0 2.409-.111 3.53-.236l-.222-1.988zm3.969-1.77c.119-1.116.223-2.294.223-3.506h-2c0 1.104-.095 2.197-.212 3.293l1.989.213zM16 15.5c0-1.212-.104-2.39-.223-3.505l-1.99.212c.118 1.097.213 2.19.213 3.293h2zM8.5 10c1.107 0 2.205.101 3.308.224l.222-1.987C10.909 8.112 9.722 8 8.5 8v2zm-3.308.224C6.296 10.101 7.393 10 8.5 10V8c-1.222 0-2.409.112-3.53.237l.222 1.987zm-3.968 1.77C1.104 13.11 1 14.289 1 15.5h2c0-1.103.095-2.196.213-3.293l-1.99-.213zM1 15.5c0 1.212.105 2.39.224 3.506l1.989-.213C3.095 17.697 3 16.603 3 15.5H1zm14.777-3.505a4.257 4.257 0 00-3.747-3.758l-.222 1.987a2.257 2.257 0 011.98 1.983l1.989-.213zM12.03 22.764a4.257 4.257 0 003.747-3.758l-1.99-.213a2.257 2.257 0 01-1.979 1.983l.222 1.988zM4.97 8.237a4.257 4.257 0 00-3.746 3.758l1.989.212a2.257 2.257 0 011.98-1.983L4.97 8.237zm.222 12.54a2.257 2.257 0 01-1.98-1.984l-1.988.213a4.257 4.257 0 003.747 3.758l.221-1.988z" fill="#243138"/><path d="M10.126 14.59a1.625 1.625 0 100-3.25 1.625 1.625 0 000 3.25zm-5.044 7.18a3.257 3.257 0 01-2.863-2.87 35.772 35.772 0 01-.21-2.782 8.192 8.192 0 011.281-.098 7.655 7.655 0 017.614 5.855c-.789.074-1.59.126-2.403.126-1.165 0-2.307-.107-3.42-.23z" stroke="#243138" stroke-width="2" stroke-linecap="round" stroke-linejoin="round"/><path d="M10.903 21.875c.341-.032.68-.067 1.016-.105a3.257 3.257 0 002.863-2.87l.052-.501a8.115 8.115 0 00-2.184-.299 8.207 8.207 0 00-3.256.666v.07a7.656 7.656 0 011.509 3.04z" stroke="#243138" stroke-width="2" stroke-linecap="round" stroke-linejoin="round"/><path fill-rule="evenodd" clip-rule="evenodd" d="M18.021 2a1 1 0 011 1v2H21a1 1 0 110 2h-1.979v2a1 1 0 11-2 0V7H15a1 1 0 110-2h2.021V3a1 1 0 011-1z" fill="#243138"/></svg>