<svg width="303" height="78" fill="none" xmlns="http://www.w3.org/2000/svg"><path d="M36.612 12.06C25.394 16.638 16.464 27.582 4.465 25.851a2.905 2.905 0 00-1.563.28c2.288 6.308 8.316 14.014 23.72 17.029 25.004 4.857 16.688 27.805 23.385 32.662 5.079 3.741 26.734-14.572 29.134-37.297-.503-4.466-1.786-8.989-4.242-13.456C66.639 9.66 48.612 7.202 36.612 12.06z" fill="#FFC11C"/><path d="M62.509 55.387c11.664 0 16.464-11.278 16.464-11.278s20.092 6.756 29.692-10.273l-2.847-1.396s3.293-13.065-13.338-16.36V3.015S65.856 19.43 57.54 32.495a33.942 33.942 0 00-2.846 5.472c-2.4 9.045-.558 17.42 7.814 17.42z" fill="#222728"/><path d="M51.737 78c-1.06 0-1.953-.28-2.678-.782-2.735-2.01-3.405-5.975-4.13-10.497-1.34-8.375-3.014-18.816-18.586-21.887-9.488-1.843-16.576-5.64-21.096-11.279A24.16 24.16 0 010 20.49c-.111-1.228.39-2.456 1.284-3.35.949-.893 2.177-1.284 3.404-1.06 7.144 1.06 13.283-2.96 19.813-7.203C28.13 6.532 31.87 4.075 36 2.4 42.64-.28 50.509-.726 57.598 1.228 63.346 2.79 71.27 6.699 76.406 16.19c5.358 9.995 6.14 21.329 2.12 32.775-3.013 8.654-8.929 17.42-15.794 23.394C58.491 75.99 54.584 78 51.737 78zM4.13 19.317a.744.744 0 00-.558.223.94.94 0 00-.279.67c.558 6.365 4.353 17.588 23.72 21.385 17.86 3.461 19.813 15.689 21.208 24.622.614 3.853 1.117 7.147 2.79 8.376.894.67 4.577-.391 9.545-4.746 6.418-5.584 12-13.791 14.845-21.999 2.568-7.314 4.298-18.537-1.897-30.094C67.699 7.034 53.077-.95 37.226 5.47c-3.795 1.563-7.422 3.908-10.939 6.198-6.753 4.41-13.73 8.933-22.1 7.705 0-.056 0-.056-.057-.056z" fill="#222728"/><path d="M60.834 61.976c-3.962 0-7.032-1.675-8.818-4.914-3.237-5.918-1.563-16.638 4.019-25.46C64.462 18.314 90.415 2.29 91.53 1.563c.502-.335 1.172-.335 1.674-.055.502.279.837.837.837 1.451V14.74c5.358 1.284 9.209 3.741 11.442 7.315 2.288 3.629 2.288 7.481 2.065 9.435l2.232 1.117c.781.39 1.116 1.228.837 2.066-7.534 20.826-27.124 17.7-32.482 16.36-1.73 3.126-7.032 10.943-17.302 10.943zM90.805 6.03c-6.753 4.411-25.394 17.085-31.924 27.359-4.911 7.76-6.586 17.252-3.963 22.054 1.172 2.122 3.126 3.183 5.916 3.183 10.381 0 14.735-9.827 14.958-10.274.335-.781 1.228-1.172 2.065-.893.056 0 5.693 1.842 12.167 1.005 8.037-1.06 13.729-5.64 17.022-13.624l-1.953-.949c-.726-.335-1.061-1.116-.893-1.898 0-.056 1.004-4.355-1.451-8.263-1.954-3.016-5.526-5.081-10.604-6.086-.782-.168-1.34-.838-1.34-1.62V6.03zM4.465 17.7c-1.563-.224-2.958 1.116-2.846 2.68.111 1.563.502 3.629 1.283 5.806.39-.056.782-.056 1.228-.111 7.535-1.061 7.423-5.528 6.363-8.543-1.898.335-3.907.447-6.028.168zm29.692-1.508c-.112 0-.224 0-.335-.056-.391-.167-.614-.67-.447-1.06.056-.113 1.228-2.793 3.516-3.016 1.563-.167 3.07.782 4.577 2.848.279.39.167.893-.168 1.172-.39.28-.893.168-1.172-.167-.781-1.061-1.953-2.29-3.07-2.178-1.115.112-1.953 1.508-2.176 2.066-.111.223-.446.39-.725.39z" fill="#222728"/><path d="M100.795 31.602c.925 0 1.675-.725 1.675-1.62 0-.893-.75-1.619-1.675-1.619-.924 0-1.674.726-1.674 1.62 0 .894.75 1.619 1.674 1.619z" fill="#fff"/><path d="M106.711 32.886c-.502.726-.948 1.675-.948 2.792 0 1.284.781 1.842 1.786 1.954.558-1.117 1.116-2.29 1.562-3.63l-2.4-1.116zm20.93 1.675l-.112-25.404 14.79-.056v5.583h-8.037l.056 19.821-6.697.056zm23.887 8.543h-6.195l-.112-25.907h6.195v1.898c1.34-1.62 3.126-2.457 5.414-2.457 1.284 0 2.456.224 3.516.726 1.06.503 2.009 1.117 2.846 1.954.782.838 1.452 1.787 1.898 2.904.447 1.116.67 2.345.67 3.629a9.456 9.456 0 01-.67 3.573 9.175 9.175 0 01-1.842 2.904 8.145 8.145 0 01-2.79 1.954c-1.061.503-2.233.726-3.516.726-2.177 0-4.019-.726-5.47-2.234l.056 10.33zm7.758-17.253c0-.558-.112-1.06-.279-1.508-.168-.446-.503-.893-.838-1.284-.39-.335-.781-.67-1.283-.837a3.82 3.82 0 00-1.619-.335 3.74 3.74 0 00-1.562.335 3.97 3.97 0 00-1.228.837c-.335.335-.614.782-.838 1.284a3.689 3.689 0 00-.334 1.508c0 .558.111 1.06.334 1.508.224.446.503.893.838 1.228.39.335.781.614 1.283.837a3.748 3.748 0 001.563.335c.558 0 1.06-.111 1.563-.335a3.98 3.98 0 001.228-.837c.334-.335.614-.782.837-1.229.223-.446.335-.949.335-1.507zm15.515 6.198l-8.539-14.908h7.2l4.744 8.822 4.52-8.878h7.144l-14.064 25.963h-6.977l5.972-11zm26.455 2.289l-3.851-10.162-1.674 10.162h-5.247l3.293-17.309h5.135l3.683 9.325 3.628-9.325h5.135l3.404 17.253h-5.302l-1.73-10.162-3.795 10.162-2.679.056zm15.292-5.081c.112 0 .168.056.335.056 1.284 0 1.953-1.005 1.953-2.96l-.055-17.475 21.152-.056.112 25.404h-6.698l-.055-19.82h-7.758l.056 12.004c0 1.284-.168 2.4-.559 3.461-.39 1.061-.948 1.954-1.674 2.68-.725.782-1.618 1.34-2.679 1.787-1.06.447-2.232.614-3.516.614h-.502l-.112-5.695zm33.822-2.68c0 2.624 1.283 3.964 3.795 3.908 1.339 0 2.344-.558 3.07-1.619h6.027c-1.172 3.964-4.241 5.919-9.097 5.974-1.507 0-2.846-.223-4.074-.67-1.228-.446-2.288-1.06-3.181-1.842-.893-.782-1.563-1.787-2.065-2.904-.503-1.116-.726-2.4-.726-3.796 0-1.452.223-2.736.67-3.909.446-1.172 1.116-2.121 1.953-2.959.837-.837 1.842-1.451 3.07-1.898 1.172-.447 2.567-.67 4.074-.67 1.507 0 2.846.223 4.018.67 1.172.447 2.177 1.06 3.014 1.898.837.838 1.451 1.843 1.898 3.015.446 1.229.67 2.569.67 4.076v.614l-13.116.112zm7.255-3.573c-.223-.838-.614-1.564-1.283-2.066a3.707 3.707 0 00-2.344-.782c-.949 0-1.731.28-2.345.726-.613.502-1.004 1.172-1.116 2.066l7.088.056zm22.325-1.117h-4.13l.056 12.172h-6.195l-.056-12.172h-4.13v-5.08l14.455-.057v5.137zm16.743-5.137h6.251L303 34.06h-6.251v-1.9c-1.339 1.62-3.125 2.457-5.358 2.457-1.283 0-2.455-.223-3.516-.67-1.06-.447-2.009-1.117-2.846-1.954-.782-.838-1.451-1.787-1.898-2.904-.446-1.116-.67-2.345-.67-3.685 0-1.228.224-2.4.614-3.517a10.179 10.179 0 011.786-2.904c.782-.837 1.675-1.507 2.791-1.954 1.06-.502 2.288-.726 3.572-.726 2.176 0 4.018.726 5.469 2.234V16.75zm-7.813 8.599c0 .558.111 1.06.335 1.563.223.502.502.893.837 1.284.335.335.781.614 1.283.838.503.223 1.005.279 1.619.279.558 0 1.06-.112 1.563-.335a5.105 5.105 0 001.283-.838c.335-.335.614-.781.838-1.228.223-.447.334-1.005.334-1.508 0-.558-.111-1.06-.334-1.507-.224-.503-.503-.893-.838-1.284-.335-.335-.781-.614-1.283-.838-.503-.223-1.005-.279-1.563-.279s-1.116.112-1.619.335c-.502.223-.893.503-1.283.838-.335.334-.614.781-.837 1.228-.224.39-.335.893-.335 1.452zM125.687 50.418h3.74c.223 0 .446.056.669.112.224.056.391.111.558.223.168.112.335.223.447.39.112.168.223.336.335.56.056.222.111.446.111.725 0 .112 0 .28-.055.447a3.834 3.834 0 01-.168.446c-.111.168-.223.28-.335.447-.111.112-.335.223-.502.335.167.056.335.112.502.223.168.112.335.224.503.391.167.168.279.335.335.559.111.223.167.502.167.781 0 .168 0 .335-.056.558-.056.168-.111.391-.223.559-.112.167-.223.335-.391.502-.167.168-.335.28-.558.391-.223.112-.446.224-.725.28-.28.055-.614.111-.949.111h-3.461l.056-8.04zm3.182 3.406c.334 0 .669-.056.892-.112a1.08 1.08 0 00.503-.279c.111-.112.223-.28.223-.39.056-.168.056-.336.056-.503 0-.168-.056-.335-.112-.503-.056-.167-.167-.279-.279-.39-.111-.112-.335-.168-.502-.224-.223-.056-.502-.056-.781-.056h-2.065v2.457h2.065zm.167 3.685c.335 0 .67-.056.893-.112.223-.056.446-.167.614-.279a.871.871 0 00.335-.447c.056-.167.111-.39.111-.558 0-.167-.055-.39-.111-.558a.872.872 0 00-.335-.447c-.168-.112-.335-.223-.614-.28a3.882 3.882 0 00-.893-.11h-2.177v2.79h2.177zm9.376-2.01a4.5 4.5 0 01-.167 1.284c-.112.391-.279.726-.558 1.005a1.73 1.73 0 01-.893.614c-.335.168-.726.224-1.172.224-.447 0-.837-.056-1.172-.224-.335-.167-.614-.335-.893-.614-.224-.279-.447-.614-.558-1.005a4.746 4.746 0 01-.168-1.284c0-.447.056-.893.168-1.284.111-.391.279-.726.558-1.005.223-.28.502-.503.893-.614.335-.168.725-.224 1.172-.224.446 0 .837.056 1.172.224.335.167.614.335.893.614.223.279.446.614.558 1.005a4.5 4.5 0 01.167 1.284zm-1.004 0c0-.335-.056-.614-.112-.893a1.727 1.727 0 00-.335-.726 1.415 1.415 0 00-.558-.447c-.223-.111-.446-.167-.781-.167s-.558.056-.726.167c-.167.112-.391.28-.558.447a1.74 1.74 0 00-.335.726 4.325 4.325 0 00-.111.893c0 .335.055.614.111.893.056.28.168.503.335.726.167.224.335.335.558.447.223.111.447.167.726.167.279 0 .558-.056.781-.167.223-.112.391-.28.558-.447.168-.223.279-.447.335-.726.056-.279.112-.558.112-.893zm6.195-2.066h-2.289l-.055 1.396c0 .726-.056 1.284-.168 1.786-.111.503-.223.838-.335 1.173-.167.28-.335.503-.558.614a1.541 1.541 0 01-.725.168c-.112 0-.168 0-.279-.056-.056-.056-.112-.056-.168-.112v-.893c.168.056.279.056.391.056.056 0 .167 0 .223-.056.056 0 .168-.056.223-.168.056-.056.112-.167.168-.335.056-.111.111-.335.167-.502.056-.223.056-.503.112-.782 0-.279.056-.67.056-1.117l.055-2.177h4.298v5.863h-1.005l-.111-4.858zm7.702 2.01c0 .503-.056.894-.168 1.284-.111.391-.279.726-.558 1.005-.223.28-.502.503-.893.614-.335.168-.725.224-1.172.224-.446 0-.837-.056-1.172-.224-.335-.167-.614-.334-.893-.614-.223-.279-.446-.614-.558-1.005a4.746 4.746 0 01-.167-1.284c0-.447.055-.893.167-1.284.112-.39.279-.726.558-1.005.223-.28.502-.503.893-.614.335-.168.726-.224 1.172-.224.447 0 .837.056 1.172.224.335.167.614.335.893.614.223.28.447.614.558 1.005.112.39.168.837.168 1.284zm-1.005 0c0-.335-.056-.614-.112-.893a1.725 1.725 0 00-.334-.726 1.418 1.418 0 00-.559-.447c-.223-.111-.446-.167-.781-.167-.279 0-.558.056-.725.167-.224.112-.391.28-.559.447a1.725 1.725 0 00-.334.726 4.322 4.322 0 00-.112.893c0 .335.056.614.112.894.055.279.167.502.334.725.168.224.335.335.559.447.223.112.446.167.725.167.279 0 .558-.055.781-.167.224-.112.391-.28.559-.447a1.72 1.72 0 00.334-.725c.056-.224.112-.559.112-.894zm2.177-2.903h3.683v.893h-2.679v4.97h-1.004V52.54zm9.767 2.903c0 .503-.056.894-.168 1.284-.111.391-.279.726-.558 1.005-.223.28-.502.503-.893.614-.335.168-.725.224-1.172.224-.446 0-.837-.056-1.172-.224-.335-.167-.614-.334-.893-.614-.223-.279-.446-.614-.558-1.005a4.746 4.746 0 01-.167-1.284c0-.447.055-.893.167-1.284.112-.39.279-.726.558-1.005.223-.28.502-.503.893-.614.335-.168.726-.224 1.172-.224.447 0 .837.056 1.172.224.335.167.614.335.893.614.223.28.447.614.558 1.005.112.335.168.782.168 1.284zm-1.005 0c0-.335-.056-.614-.111-.893a1.74 1.74 0 00-.335-.726 1.422 1.422 0 00-.558-.447c-.224-.111-.447-.167-.782-.167-.279 0-.558.056-.725.167-.224.112-.391.28-.559.447a1.725 1.725 0 00-.334.726 4.322 4.322 0 00-.112.893c0 .335.056.614.112.894.055.279.167.502.334.725.168.224.335.335.559.447.223.112.446.167.725.167.279 0 .558-.055.782-.167.223-.112.39-.28.558-.447.167-.223.279-.446.335-.725.055-.28.111-.559.111-.894zm7.144 2.903h-4.632v1.452h-.949v-2.29h.781c.168-.39.279-.78.391-1.227.112-.447.167-.838.223-1.229.056-.39.056-.837.112-1.284v-1.284h4.186v4.97h.837v2.288h-.949v-1.396zm-.893-.893v-4.132h-2.177c0 .335-.055.67-.055 1.005 0 .335-.056.726-.112 1.061-.056.335-.112.726-.167 1.061-.056.335-.168.67-.28 1.005h2.791zm7.535-1.173c0 .168-.056.28-.112.447l-.167.503a1.326 1.326 0 01-.335.502c-.112.168-.279.28-.447.391a1.86 1.86 0 01-.67.28 3.795 3.795 0 01-.837.111c-.167 0-.335 0-.558-.056-.167-.056-.391-.111-.558-.223-.167-.112-.335-.224-.502-.391-.168-.168-.335-.335-.447-.558a3.263 3.263 0 01-.279-.782 5.615 5.615 0 01-.111-1.06c0-.503.055-.95.223-1.285.111-.39.335-.726.558-1.005.223-.28.502-.503.837-.614a2.19 2.19 0 011.005-.224c.335 0 .614.056.837.112.223.056.446.168.614.28.167.11.335.223.446.39.112.168.224.28.279.447l.168.502c.056.168.056.335.056.447h-.949c-.056-.39-.168-.726-.447-.95-.223-.223-.558-.334-.949-.334a1.55 1.55 0 00-.725.167c-.223.112-.391.28-.502.503a8.738 8.738 0 00-.335.726 4.9 4.9 0 00-.112.949 5 5 0 00.112 1.005c.056.279.167.502.335.67.111.167.279.335.502.39.223.112.446.112.67.112.167 0 .335-.056.502-.111.167-.056.279-.168.446-.28.112-.111.224-.279.335-.446.112-.168.168-.391.168-.614h.949zm1.004-3.852h1.005v2.848l3.014-2.848h1.339l-2.791 2.624 2.847 3.239h-1.34l-2.344-2.625-.725.615v2.065h-1.005v-5.918zm6.251 0h1.005v4.467l2.902-4.523h1.172v5.863h-1.005v-4.467l-2.902 4.523h-1.172v-5.863zm6.642 0h1.004v4.467l2.902-4.523H194v5.863h-1.004v-4.467l-2.902 4.523h-1.172v-5.863zm1.618-2.29c.056.224.168.392.279.56a1.2 1.2 0 00.67.223c.279 0 .502-.056.67-.224.167-.111.223-.335.279-.558h.948c0 .223-.055.39-.167.614-.112.168-.223.335-.391.447a2.05 2.05 0 01-.614.279 3.285 3.285 0 01-.781.112 3.28 3.28 0 01-.781-.112 2.05 2.05 0 01-.614-.28c-.168-.11-.279-.278-.391-.446a1.122 1.122 0 01-.167-.614h1.06zm8.204 2.234h3.684v.894h-2.679v4.969h-1.005v-5.863zm4.521 0h1.005v.782c.055-.112.167-.28.279-.39.111-.113.223-.224.39-.336.168-.112.335-.167.503-.223.167-.056.39-.056.669-.056.335 0 .614.056.893.167.279.112.559.28.782.559.223.279.39.558.558.893.112.335.223.782.223 1.284 0 .614-.056 1.117-.167 1.508-.112.447-.279.782-.503 1.005-.223.279-.502.447-.837.558a3.247 3.247 0 01-1.06.168c-.223 0-.391 0-.558-.056-.168-.056-.335-.112-.447-.224-.111-.055-.279-.167-.335-.279-.055-.111-.167-.223-.223-.279v2.96h-1.004l-.168-8.04zm1.06 2.96c0 .334.056.614.112.893s.168.502.279.67c.112.223.279.335.502.447.224.111.447.167.726.167.279 0 .502-.056.726-.167.223-.112.39-.28.502-.447.111-.224.223-.447.279-.726.056-.28.112-.558.112-.893 0-.335-.056-.615-.112-.894s-.168-.502-.279-.726c-.112-.223-.279-.335-.502-.446a1.548 1.548 0 00-.726-.168c-.279 0-.502.056-.726.168a1.32 1.32 0 00-.502.446c-.111.224-.223.447-.279.726-.112.28-.112.614-.112.95zm4.744-2.96h1.117l1.618 4.746 1.563-4.802h1.116l-2.232 6.086c-.112.28-.224.559-.335.782-.112.223-.168.447-.279.558-.112.168-.168.28-.279.391a1.156 1.156 0 01-.335.223c-.112.056-.223.112-.391.112-.111 0-.279.056-.502.056h-.335c-.056 0-.167 0-.223-.056v-.893c.056 0 .167.056.279.056.111 0 .223.056.335.056.167 0 .335-.056.446-.112.112-.112.223-.224.279-.391l.335-.837-2.177-5.975zm6.307-.056h1.507l1.619 4.802 1.562-4.802h1.396v5.863h-.949v-4.69l-1.563 4.746h-1.005l-1.618-4.69v4.69h-.949v-5.919zm7.59 0h1.005v4.467l2.902-4.523h1.172v5.863h-1.004v-4.467l-2.902 4.523h-1.173v-5.863zm6.698-.056h1.004v2.346h2.791V52.26h1.005v5.863h-1.005V55.5h-2.791v2.624h-1.004v-5.862zm6.307 0h3.683v.894h-2.679v4.97h-1.004V52.26zm12.501 3.742c0 .167-.056.279-.111.446l-.168.503a1.315 1.315 0 01-.335.502c-.111.168-.279.28-.446.391a1.87 1.87 0 01-.67.28 3.795 3.795 0 01-.837.11c-.167 0-.335 0-.558-.055-.168-.056-.391-.112-.558-.223a3.073 3.073 0 01-.503-.391c-.167-.168-.334-.335-.446-.558a3.222 3.222 0 01-.279-.782 5.609 5.609 0 01-.112-1.06c0-.503.056-.95.224-1.285.111-.391.334-.726.558-1.005.223-.28.502-.503.837-.614.335-.168.67-.224 1.004-.224.335 0 .614.056.838.112.223.056.446.167.614.28.167.11.334.222.446.39.112.167.223.28.279.447l.167.502c.056.168.056.335.056.447h-.948c-.056-.391-.168-.726-.447-.95-.223-.223-.558-.334-.949-.334a1.55 1.55 0 00-.725.167 1.1 1.1 0 00-.503.503c-.111.223-.223.446-.334.726a4.9 4.9 0 00-.112.949 5 5 0 00.112 1.005c.055.279.167.502.334.67.112.167.279.335.503.39.223.112.446.112.669.112.168 0 .335-.056.503-.111.167-.056.279-.168.446-.28.112-.111.223-.279.335-.446.112-.168.168-.391.168-.614h.948zm1.005-2.01c0-.335.056-.67.223-.894.112-.223.279-.447.502-.614.224-.168.447-.28.782-.335.335-.056.614-.112.949-.112.279 0 .558 0 .837.112.279.112.502.167.725.28.224.11.391.278.503.502.111.223.167.446.167.726v3.405c0 .112 0 .168.056.224.056.056.111.111.223.111h.168c.055 0 .111 0 .167-.055v.67c-.112 0-.167.055-.279.055a.5.5 0 00-.279.056c-.168 0-.335 0-.447-.056-.111-.055-.223-.055-.335-.167-.111-.056-.167-.168-.223-.28-.056-.11-.056-.223-.111-.39-.112.112-.279.28-.391.39a1.215 1.215 0 01-.447.28c-.167.112-.39.167-.558.223-.223.056-.446.056-.725.056-.223 0-.447-.056-.67-.112a1.157 1.157 0 01-.558-.335c-.168-.167-.335-.335-.391-.502a1.553 1.553 0 01-.167-.726c0-.28.056-.558.167-.782.112-.223.223-.39.391-.558.167-.167.335-.28.558-.335l.67-.167 1.674-.224a.507.507 0 00.391-.167c.111-.112.111-.28.111-.503 0-.335-.111-.614-.334-.782-.224-.167-.559-.223-1.005-.223-.447 0-.781.112-1.005.28-.223.167-.335.446-.39.837l-.949.111zm3.683 1.116a1.19 1.19 0 01-.279.168c-.111.056-.279.056-.39.111-.168 0-.279.056-.447.056-.167 0-.335.056-.502.056-.168 0-.335.056-.502.112a2.721 2.721 0 00-.391.167.672.672 0 00-.279.28.801.801 0 00-.112.39c0 .168.056.335.056.447.056.112.112.223.223.335.112.112.224.167.335.223.112.056.279.056.447.056.111 0 .223 0 .335-.056.111 0 .279-.056.39-.111.112-.056.279-.112.391-.168.111-.056.223-.167.335-.28.111-.11.167-.222.223-.334a1.05 1.05 0 00.112-.447l.055-1.005zm6.642-2.066h-2.288l-.056 1.396c0 .726-.056 1.284-.168 1.787-.111.502-.223.837-.334 1.172-.168.28-.335.503-.558.615a1.548 1.548 0 01-.726.167c-.112 0-.167 0-.279-.056-.056-.056-.112-.056-.168-.111v-.894c.168.056.28.056.391.056.056 0 .168 0 .223-.056.056 0 .168-.056.224-.167.055-.056.111-.168.167-.335.056-.112.112-.335.168-.503.055-.223.055-.502.111-.781 0-.28.056-.67.056-1.117l.056-2.178h4.297V57.9h-1.004l-.112-4.858zm7.758 2.01c0 .503-.056.894-.168 1.284-.111.391-.279.726-.558 1.005a1.72 1.72 0 01-.893.615c-.335.167-.725.223-1.172.223-.446 0-.837-.056-1.172-.223-.335-.168-.614-.335-.893-.615-.223-.279-.446-.614-.558-1.005a4.786 4.786 0 01-.167-1.284c0-.446.056-.893.167-1.284.112-.39.279-.726.558-1.005.223-.28.503-.502.893-.614.335-.168.726-.224 1.172-.224.447 0 .837.056 1.172.224.335.167.614.335.893.614.224.28.447.614.558 1.005.112.39.168.838.168 1.284zm-1.061.056a4.33 4.33 0 00-.111-.893 1.739 1.739 0 00-.335-.726 1.423 1.423 0 00-.558-.447c-.223-.111-.447-.167-.782-.167-.279 0-.558.056-.725.167-.223.112-.391.28-.558.447a1.726 1.726 0 00-.335.726 4.322 4.322 0 00-.112.893c0 .335.056.614.112.893.056.28.167.503.335.726.167.224.335.335.558.447.223.112.446.167.725.167.279 0 .559-.055.782-.167.223-.112.39-.28.558-.447.167-.223.279-.446.335-.726.111-.279.167-.614.111-.893zm2.177-2.959h1.005v2.345h2.79v-2.345h1.005v5.862h-1.005v-2.624h-2.79v2.624h-1.005V52.15zM129.482 66.945h-2.79v4.97h-1.005V66.05h4.856v5.863h-1.005l-.056-4.97zm7.702 2.01c0 .502-.055.893-.167 1.284-.112.39-.279.726-.558 1.005-.223.28-.502.502-.893.614-.335.168-.726.224-1.172.224-.447 0-.837-.056-1.172-.224-.335-.167-.614-.335-.893-.614-.223-.28-.447-.614-.558-1.005a4.746 4.746 0 01-.168-1.284c0-.447.056-.894.168-1.284.111-.391.279-.726.558-1.005.279-.28.502-.503.893-.614.335-.168.725-.224 1.172-.224.446 0 .837.056 1.172.224.335.167.614.334.893.614.279.279.446.614.558 1.005.112.39.167.781.167 1.284zm-1.004 0c0-.335-.056-.614-.112-.894a1.727 1.727 0 00-.335-.725 1.415 1.415 0 00-.558-.447c-.223-.112-.446-.167-.781-.167-.279 0-.558.055-.726.167-.223.112-.39.28-.558.447a1.74 1.74 0 00-.335.725c-.056.28-.111.559-.111.894 0 .335.055.614.111.893.056.28.168.503.335.726.168.223.335.335.558.447.224.111.447.167.726.167.279 0 .558-.056.781-.167.223-.112.391-.28.558-.447.168-.223.279-.447.335-.726.056-.279.112-.558.112-.893zm4.688-2.959h1.116l1.619 4.746 1.562-4.802h1.117l-2.233 6.086c-.111.279-.223.558-.335.782-.111.223-.167.446-.279.558-.111.167-.167.279-.279.39-.111.112-.223.168-.335.224a.802.802 0 01-.39.112c-.112 0-.279.055-.503.055h-.334c-.056 0-.168 0-.224-.055v-.894c.056 0 .168.056.279.056.112 0 .224.056.335.056.168 0 .335-.056.447-.112.111-.111.223-.223.279-.39l.335-.838-2.177-5.974zm8.372 3.684l-1.396 2.178h-1.283l2.065-3.015-2.009-2.847h1.283l1.395 2.01 1.34-2.066h1.228l-2.009 2.847 2.12 3.015h-1.283l-1.451-2.121zm8.874-.78c0 .502-.056.892-.168 1.283-.111.391-.279.726-.558 1.005a1.72 1.72 0 01-.893.614c-.335.168-.725.224-1.172.224-.446 0-.837-.056-1.172-.224-.335-.167-.614-.335-.893-.614-.223-.279-.446-.614-.558-1.005a4.746 4.746 0 01-.167-1.284c0-.447.055-.893.167-1.284.112-.39.279-.726.558-1.005.223-.28.502-.502.893-.614.335-.168.726-.224 1.172-.224.447 0 .837.056 1.172.224.335.167.614.335.893.614.223.28.447.614.558 1.005.112.335.168.782.168 1.284zm-1.005 0c0-.336-.056-.615-.112-.894a1.724 1.724 0 00-.334-.726 1.418 1.418 0 00-.559-.447c-.223-.111-.446-.167-.781-.167-.279 0-.558.056-.725.167-.224.112-.391.28-.559.447a1.724 1.724 0 00-.334.726 4.322 4.322 0 00-.112.893c0 .335.056.614.112.894.055.279.167.502.334.725.168.224.335.335.559.447.223.112.446.167.725.167.279 0 .558-.055.781-.167.224-.112.391-.28.559-.447a1.72 1.72 0 00.334-.725c.056-.28.112-.559.112-.894zm7.144 2.902h-4.632v1.452h-.949v-2.289h.781a7.88 7.88 0 00.391-1.228c.111-.391.167-.838.223-1.229.056-.39.056-.837.112-1.284V65.94h4.186v4.97h.837v2.288h-.949v-1.395zm-.893-.893v-4.132h-2.177c0 .335-.055.67-.055 1.005 0 .336-.056.726-.112 1.061-.056.335-.112.726-.168 1.061-.055.335-.167.67-.279 1.005h2.791zm2.177-4.969h1.116l1.618 4.746 1.563-4.802h1.116l-2.232 6.086c-.112.28-.223.558-.335.782-.112.223-.167.446-.279.558-.112.168-.167.28-.279.39a1.166 1.166 0 01-.335.224c-.112.056-.223.112-.391.112-.111 0-.279.056-.502.056h-.335c-.056 0-.167 0-.223-.056v-.894c.056 0 .167.056.279.056.112 0 .223.056.335.056.167 0 .335-.056.446-.112.112-.111.224-.223.279-.39l.335-.838-2.176-5.974zm11.05 2.4h.503c.111 0 .279 0 .446-.055.168-.056.279-.112.391-.167a.678.678 0 00.279-.28.805.805 0 00.111-.39c0-.112 0-.224-.055-.335-.056-.112-.112-.224-.224-.28-.111-.055-.223-.167-.39-.167-.168-.056-.335-.056-.503-.056-.111 0-.223 0-.39.056-.168.056-.279.056-.391.167-.112.056-.279.168-.335.335-.111.168-.167.335-.223.559h-.949c0-.28.056-.503.168-.67a1.07 1.07 0 01.279-.503c.111-.167.279-.279.39-.39.168-.112.335-.168.503-.224.167-.056.334-.112.502-.112.167 0 .335-.056.502-.056.279 0 .558.056.782.112.279.056.502.168.725.28.223.111.391.334.502.502.112.223.168.447.168.726 0 .167 0 .335-.056.446-.056.112-.112.28-.223.335-.056.112-.168.168-.279.28a1.194 1.194 0 00-.279.167c.111 0 .223.056.335.112.111.055.223.111.334.223.112.112.224.223.279.39.056.168.112.336.112.615 0 .335-.056.614-.223.838-.168.223-.335.446-.558.614a1.974 1.974 0 01-.782.335c-.279.055-.558.111-.893.111-.39 0-.725-.056-1.004-.111-.279-.056-.558-.224-.782-.391-.223-.168-.39-.391-.558-.614-.111-.224-.223-.503-.223-.782h1.005c0 .223.111.39.167.558.056.168.223.28.391.335.167.056.279.168.446.168.168 0 .335.056.503.056.446 0 .837-.112 1.06-.28.223-.167.335-.446.335-.725 0-.112 0-.28-.056-.335-.056-.112-.112-.224-.223-.28-.112-.055-.223-.111-.391-.167-.167-.056-.391-.056-.614-.056h-.67l.056-.893zm4.186-.725c0-.335.056-.67.223-.893.112-.224.279-.447.503-.615a1.67 1.67 0 01.781-.335c.335-.056.614-.111.949-.111.279 0 .558 0 .837.111.279.056.502.168.726.28.223.111.39.279.502.502.111.223.167.447.167.726v3.406c0 .111 0 .167.056.223.056.056.112.112.223.112h.168c.056 0 .111 0 .167-.056v.67c-.111 0-.167.056-.279.056-.112 0-.167 0-.279.055-.167 0-.335 0-.446-.055-.112-.056-.224-.056-.335-.168-.112-.056-.168-.167-.224-.279-.055-.112-.055-.223-.111-.39-.112.11-.279.278-.391.39-.167.112-.279.223-.446.28-.168.11-.391.167-.558.222-.224.056-.447.056-.726.056-.223 0-.447-.056-.67-.111a1.161 1.161 0 01-.558-.335c-.167-.168-.335-.335-.391-.503a1.553 1.553 0 01-.167-.726c0-.279.056-.558.167-.781.112-.224.224-.391.391-.559.168-.167.335-.279.558-.335l.67-.167 1.674-.224a.507.507 0 00.391-.167c.112-.112.112-.28.112-.503 0-.335-.112-.614-.335-.781-.223-.168-.558-.224-1.005-.224-.446 0-.781.112-1.004.28-.224.167-.335.446-.391.837l-.949.112zm3.684 1.117c-.056.055-.168.111-.279.167-.112.056-.279.056-.391.112-.168 0-.279.056-.447.056-.167 0-.334.055-.502.055-.167 0-.335.056-.502.112-.168.056-.279.112-.391.168a.672.672 0 00-.279.279.801.801 0 00-.112.39c0 .168.056.335.056.447.056.112.112.224.223.335.112.112.224.168.335.224.112.055.279.055.447.055.111 0 .223 0 .335-.056.111 0 .279-.055.39-.111.112-.056.279-.112.391-.168.112-.055.223-.167.335-.279.112-.112.167-.223.223-.335a1.05 1.05 0 00.112-.447l.056-1.005zm10.046-.503h.502l1.953-2.4h1.228l-2.344 2.79 2.456 3.072h-1.284l-2.009-2.68h-.502v2.68h-1.005v-2.68h-.502l-2.009 2.68h-1.284l2.456-3.071-2.344-2.792h1.227l1.954 2.401h.502v-2.4h1.005v2.4zm4.688-2.401h1.004v4.467l2.903-4.523h1.172v5.863h-1.005v-4.467l-2.902 4.523h-1.172v-5.863zm6.641 0h2.568c.725 0 1.283.112 1.618.391.391.28.558.67.558 1.172 0 .28-.055.503-.223.67-.111.168-.335.335-.502.503.335.112.558.28.781.503.168.223.279.502.279.837 0 .28-.056.502-.111.726a1.43 1.43 0 01-.447.558c-.167.168-.446.28-.725.335a5.14 5.14 0 01-1.061.112h-2.679l-.056-5.807zm1.005 2.457h1.563c.335 0 .614-.056.837-.224.223-.111.279-.335.279-.614a.805.805 0 00-.112-.39c-.055-.112-.111-.168-.223-.28-.112-.111-.223-.111-.335-.111-.111 0-.223-.056-.335-.056h-1.674v1.675zm0 2.568h1.563c.279 0 .502 0 .669-.056.168-.055.335-.111.447-.167.112-.056.167-.168.223-.28.056-.111.056-.223.056-.39 0-.168 0-.28-.056-.391-.056-.112-.111-.223-.223-.28a3.861 3.861 0 00-.447-.167c-.167-.055-.39-.055-.669-.055h-1.563v1.786zm10.437-2.177c0 .502-.056.893-.168 1.284-.111.39-.279.726-.558 1.005-.223.28-.502.502-.893.614-.335.168-.725.224-1.172.224-.446 0-.837-.056-1.172-.224-.335-.167-.614-.335-.893-.614-.223-.28-.446-.614-.558-1.005a4.747 4.747 0 01-.167-1.284c0-.447.055-.894.167-1.284.112-.391.279-.726.558-1.005.279-.28.502-.503.893-.615.335-.167.726-.223 1.172-.223.447 0 .837.056 1.172.223.335.168.614.335.893.615.223.279.447.614.558 1.005.112.39.168.837.168 1.284zm-1.005 0c0-.335-.056-.614-.111-.894a1.739 1.739 0 00-.335-.725 1.423 1.423 0 00-.558-.447c-.224-.112-.447-.168-.782-.168-.279 0-.558.056-.725.168-.224.112-.391.28-.558.447a1.71 1.71 0 00-.335.725c-.056.28-.112.559-.112.894 0 .335.056.614.112.893.055.28.167.503.335.726.167.223.334.335.558.447.223.111.446.167.725.167.279 0 .558-.056.782-.167.223-.112.39-.28.558-.447a1.74 1.74 0 00.335-.726 3.93 3.93 0 00.111-.893zm3.74-2.066h-2.066v-.893h5.135v.893h-2.065v4.97h-1.004v-4.97zm4.13-.893h1.004v2.345h2.791v-2.345h1.004v5.862h-1.004v-2.624h-2.791v2.624h-1.004v-5.862zm6.306 0h1.005v2.177h1.786c.335 0 .614.056.893.112.279.111.502.223.67.39.167.168.334.336.39.559.056.223.168.502.168.782 0 .279-.056.558-.168.781a2 2 0 01-.39.559c-.168.167-.391.279-.67.39-.279.112-.558.112-.893.112h-2.791v-5.862zm1.061 5.08h1.562c.168 0 .335 0 .503-.055a2.7 2.7 0 00.39-.168.568.568 0 00.279-.335 1.05 1.05 0 00.112-.447c0-.167-.056-.335-.112-.446-.055-.112-.167-.224-.279-.335-.111-.056-.279-.168-.446-.168-.168-.056-.335-.056-.558-.056h-1.507l.056 2.01zm4.688-5.08h1.004v5.862h-1.004v-5.862zm2.511 0h1.507l1.619 4.801 1.562-4.801h1.396v5.862h-.949v-4.69l-1.563 4.746h-1.004l-1.619-4.69v4.69h-.949v-5.918zm7.591-.057h1.004v4.468l2.902-4.523h1.172v5.862h-1.004v-4.466l-2.902 4.522h-1.172v-5.862z" fill="#222728"/></svg>