<svg width="18" height="16" viewBox="0 0 18 16" fill="none" xmlns="http://www.w3.org/2000/svg">
<path d="M9.00018 2.64769C8.11796 2.64769 7.31113 2.7315 6.58388 2.89548L4.38315 1.37931C3.52059 0.785062 2.34567 1.40463 2.34881 2.45207L2.36027 6.27523C2.08416 7.00075 1.94238 7.82806 1.94238 8.75073C1.94238 12.6567 4.48319 14.8538 9.00018 14.8538C13.5172 14.8538 16.058 12.6567 16.058 8.75073C16.058 7.82793 15.9162 7.00052 15.64 6.27492L15.6514 2.45207C15.6546 1.40463 14.4797 0.785062 13.6171 1.37931L11.4164 2.89546C10.6892 2.73149 9.88236 2.64769 9.00018 2.64769Z" fill="white"/>
<path fill-rule="evenodd" clip-rule="evenodd" d="M4.91601 14.0889C5.07732 13.6123 5.5944 13.3568 6.07096 13.5181C6.87976 13.7918 7.85528 13.9427 8.99971 13.9427C10.1441 13.9427 11.1196 13.7918 11.9285 13.5181C12.405 13.3568 12.9221 13.6123 13.0834 14.0889C13.2447 14.5654 12.9891 15.0825 12.5126 15.2438C11.4783 15.5939 10.2992 15.7646 8.99971 15.7646C7.70023 15.7646 6.52108 15.5939 5.48683 15.2438C5.01027 15.0825 4.75471 14.5654 4.91601 14.0889Z" fill="#243138"/>
<path fill-rule="evenodd" clip-rule="evenodd" d="M3.86648 2.12944C3.60931 1.95227 3.259 2.13699 3.25993 2.44929L3.2714 6.27246C3.27291 6.77557 2.86628 7.18465 2.36316 7.18616C1.86005 7.18767 1.45097 6.78103 1.44946 6.27792L1.438 2.45476C1.43265 0.672175 3.43219 -0.382227 4.90013 0.629095L6.78198 1.92557C7.47331 1.79911 8.21442 1.73667 9.00034 1.73667C9.78623 1.73667 10.5273 1.7991 11.2186 1.92555L13.1004 0.629095C14.5684 -0.382227 16.5679 0.672175 16.5626 2.45476L16.5511 6.27761C16.5496 6.78072 16.1405 7.18735 15.6374 7.18585C15.1343 7.18434 14.7277 6.77526 14.7292 6.27215L14.7406 2.44929C14.7416 2.13699 14.3913 1.95227 14.1341 2.12944L11.9334 3.6456C11.7241 3.78978 11.4641 3.83998 11.2162 3.78408C10.5643 3.6371 9.82572 3.55862 9.00034 3.55862C8.17493 3.55862 7.43631 3.63711 6.78442 3.7841C6.5365 3.84 6.2765 3.7898 6.06722 3.64562L3.86648 2.12944Z" fill="#243138"/>
<path fill-rule="evenodd" clip-rule="evenodd" d="M0.0227051 9.22884C0.0227051 8.72573 0.430561 8.31787 0.933677 8.31787H4.37602C4.87914 8.31787 5.28699 8.72573 5.28699 9.22884C5.28699 9.73196 4.87914 10.1398 4.37602 10.1398H0.933677C0.430561 10.1398 0.0227051 9.73196 0.0227051 9.22884Z" fill="#243138"/>
<path fill-rule="evenodd" clip-rule="evenodd" d="M1.18193 14.0843C0.905087 13.6642 1.02122 13.0992 1.44133 12.8223L4.31568 10.9282C4.73579 10.6514 5.30077 10.7675 5.57761 11.1876C5.85445 11.6077 5.73831 12.1727 5.31821 12.4495L2.44385 14.3437C2.02375 14.6205 1.45877 14.5044 1.18193 14.0843Z" fill="#243138"/>
<path fill-rule="evenodd" clip-rule="evenodd" d="M17.9775 9.22884C17.9775 8.72573 17.5697 8.31787 17.0666 8.31787H13.6242C13.1211 8.31787 12.7132 8.72573 12.7132 9.22884C12.7132 9.73196 13.1211 10.1398 13.6242 10.1398H17.0666C17.5697 10.1398 17.9775 9.73196 17.9775 9.22884Z" fill="#243138"/>
<path fill-rule="evenodd" clip-rule="evenodd" d="M16.819 14.0843C17.0959 13.6642 16.9798 13.0992 16.5597 12.8223L13.6853 10.9282C13.2652 10.6514 12.7002 10.7675 12.4234 11.1876C12.1465 11.6077 12.2627 12.1727 12.6828 12.4495L15.5571 14.3437C15.9772 14.6205 16.5422 14.5044 16.819 14.0843Z" fill="#243138"/>
<path fill-rule="evenodd" clip-rule="evenodd" d="M9.77201 11.3692C9.34425 11.7925 8.65547 11.7925 8.22771 11.3692L7.60565 10.7537C7.47435 10.6238 7.33539 10.4538 7.23588 10.2422C7.13789 10.0338 7.04778 9.71535 7.13527 9.34986C7.2353 8.93198 7.49432 8.67331 7.76613 8.5251C8.02726 8.38272 8.2996 8.34085 8.46921 8.33157C8.80263 8.31334 9.19708 8.31334 9.5305 8.33157C9.70012 8.34085 9.97246 8.38272 10.2336 8.5251C10.5054 8.67331 10.7644 8.93198 10.8644 9.34986C10.9519 9.71535 10.8618 10.0338 10.7638 10.2422C10.6643 10.4538 10.5254 10.6238 10.3941 10.7537L9.77201 11.3692Z" fill="#243138"/>
</svg>
