<svg width="24" height="24" viewBox="0 0 24 24" fill="none" xmlns="http://www.w3.org/2000/svg">
<path d="M4.5 19.5C8.64214 23.6421 15.3579 23.6421 19.5 19.5C23.6421 15.3579 23.6421 8.64214 19.5 4.5C15.3579 0.357864 8.64214 0.357864 4.5 4.5C0.357865 8.64214 0.357864 15.3579 4.5 19.5Z" stroke="#CDD7DC" stroke-width="2"/>
<path d="M15.396 8.60355C15.6149 8.8225 15.6149 9.1775 15.396 9.39645L9.39596 15.3964C9.17701 15.6154 8.82202 15.6154 8.60307 15.3964C8.38411 15.1775 8.38411 14.8225 8.60307 14.6036L14.6031 8.60355C14.822 8.3846 15.177 8.3846 15.396 8.60355Z" fill="#CDD7DC" stroke="#CDD7DC"/>
<path d="M9.39645 8.60355L15.3964 14.6036C15.6154 14.8225 15.6154 15.1775 15.3964 15.3964C15.1775 15.6154 14.8225 15.6154 14.6036 15.3964L8.60355 9.39645C8.3846 9.1775 8.3846 8.8225 8.60355 8.60355C8.8225 8.3846 9.1775 8.3846 9.39645 8.60355Z" fill="#CDD7DC" stroke="#CDD7DC"/>
</svg>
