<svg width="20" height="20" viewBox="0 0 20 20" fill="none" xmlns="http://www.w3.org/2000/svg">
    <path d="M3.61847 9.89514C3.25335 9.86203 2.89285 9.8208 2.53764 9.77946C1.84239 9.69853 1.28686 9.14262 1.20949 8.44696C1.11994 7.64182 1.03271 6.80955 1.03271 5.95785L1.03297 5.87804C1.04665 3.71113 2.95584 1.94374 5.09003 1.95028C5.79567 1.95459 6.46746 2.16244 7.04897 2.51623C7.25917 2.46089 7.4753 2.42117 7.6961 2.39846C8.45241 2.32068 9.2212 2.26632 10.0002 2.26632C10.7791 2.26632 11.5479 2.32068 12.3042 2.39846C12.525 2.42117 12.7411 2.46089 12.9513 2.51623C13.591 2.12707 14.31 1.948 15.0542 1.95028C17.154 1.9631 18.9541 3.77826 18.9673 5.87804L18.9676 5.95785C18.9676 6.80955 18.8804 7.64182 18.7908 8.44696C18.7135 9.14262 18.1579 9.69853 17.4627 9.77946C17.1075 9.8208 16.747 9.86203 16.3818 9.89514C16.3684 10.7227 16.3226 11.6851 16.2621 12.6689C16.0905 15.4611 13.8939 17.8543 11.1012 18.0163C10.7367 18.0375 10.3696 18.0497 10.0002 18.0497C9.63076 18.0497 9.26365 18.0375 8.89908 18.0163C6.10638 17.8543 3.90979 15.4611 3.73817 12.6689C3.6777 11.6851 3.63192 10.7227 3.61847 9.89514Z" fill="white" stroke="#243138" stroke-width="2" stroke-linejoin="round"/>
    <path d="M9.54639 12.7777C8.9941 12.7777 8.54639 13.2254 8.54639 13.7777C8.54639 14.33 8.9941 14.7777 9.54639 14.7777V12.7777ZM10.4529 14.7777C11.0052 14.7777 11.4529 14.33 11.4529 13.7777C11.4529 13.2254 11.0052 12.7777 10.4529 12.7777V14.7777ZM9.54639 14.7777H10.4529V12.7777H9.54639V14.7777Z" fill="#243138"/>
    <path d="M3.61424 10.898C3.06195 10.898 2.61424 10.4502 2.61424 9.89796C2.61424 9.34568 3.06195 8.89796 3.61424 8.89796V10.898ZM5.73926 6.69342C5.73926 6.14114 6.18697 5.69342 6.73926 5.69342C7.29154 5.69342 7.73926 6.14114 7.73926 6.69342H5.73926ZM5.67244 9.73564L5.79045 10.7287L5.67244 9.73564ZM3.61424 8.89796C4.25033 8.89796 4.87933 8.82286 5.55442 8.74263L5.79045 10.7287C5.13704 10.8063 4.38914 10.898 3.61424 10.898V8.89796ZM7.73926 6.69342C7.73926 7.48432 7.65435 8.24782 7.58032 8.92398L5.5922 8.70631C5.66806 8.01346 5.73926 7.35748 5.73926 6.69342H7.73926ZM5.55442 8.74263C5.56205 8.74172 5.57123 8.73814 5.58009 8.72923C5.58885 8.72041 5.59156 8.71222 5.5922 8.70631L7.58032 8.92398C7.47685 9.8691 6.72986 10.617 5.79045 10.7287L5.55442 8.74263Z" fill="#243138"/>
    <path d="M16.3858 10.898C16.938 10.898 17.3858 10.4502 17.3858 9.89796C17.3858 9.34568 16.938 8.89796 16.3858 8.89796V10.898ZM14.2607 6.69342C14.2607 6.14114 13.813 5.69342 13.2607 5.69342C12.7085 5.69342 12.2607 6.14114 12.2607 6.69342H14.2607ZM16.3858 8.89796C15.7497 8.89796 15.1207 8.82286 14.4456 8.74263L14.2095 10.7287C14.863 10.8063 15.6109 10.898 16.3858 10.898V8.89796ZM12.2607 6.69342C12.2607 7.48432 12.3456 8.24782 12.4197 8.92398L14.4078 8.70631C14.3319 8.01346 14.2607 7.35748 14.2607 6.69342H12.2607ZM14.4456 8.74263C14.4379 8.74172 14.4288 8.73814 14.4199 8.72923C14.4112 8.72041 14.4084 8.71222 14.4078 8.70631L12.4197 8.92398C12.5232 9.8691 13.2701 10.617 14.2095 10.7287L14.4456 8.74263Z" fill="#243138"/>
</svg>
