<svg width="24" height="24" viewBox="0 0 24 24" fill="none" xmlns="http://www.w3.org/2000/svg">
<path d="M14.7822 12.1008L13.7879 12.2072L14.7822 12.1008ZM11.9192 9.23048L12.03 8.23664L11.9192 9.23048ZM11.9192 21.77L11.8084 20.7762L11.9192 21.77ZM14.7822 18.8996L13.7879 18.7933L14.7822 18.8996ZM5.08128 9.23048L4.9705 8.23664L5.08128 9.23048ZM2.21827 12.1008L3.21259 12.2072L2.21827 12.1008ZM5.08128 21.77L5.19206 20.7762L5.08128 21.77ZM2.21827 18.8996L3.2126 18.7933L2.21827 18.8996ZM8.50024 21.0005C7.39315 21.0005 6.29583 20.8992 5.19206 20.7762L4.9705 22.7639C6.09147 22.8888 7.27841 23.0005 8.50024 23.0005V21.0005ZM11.8084 20.7762C10.7047 20.8992 9.60734 21.0005 8.50024 21.0005V23.0005C9.72208 23.0005 10.909 22.8888 12.03 22.7639L11.8084 20.7762ZM15.7765 19.006C15.8959 17.8903 16.0005 16.7124 16.0005 15.5002H14.0005C14.0005 16.6036 13.9052 17.6968 13.7879 18.7933L15.7765 19.006ZM16.0005 15.5002C16.0005 14.2881 15.8959 13.1101 15.7765 11.9945L13.7879 12.2072C13.9052 13.3037 14.0005 14.3969 14.0005 15.5002H16.0005ZM8.50025 10C9.60734 10 10.7047 10.1013 11.8084 10.2243L12.03 8.23664C10.909 8.11169 9.72208 8 8.50025 8V10ZM5.19206 10.2243C6.29583 10.1013 7.39315 10 8.50025 10V8C7.27841 8 6.09147 8.11169 4.9705 8.23664L5.19206 10.2243ZM1.22394 11.9945C1.10458 13.1101 1 14.2881 1 15.5002H3C3 14.3969 3.09528 13.3037 3.21259 12.2072L1.22394 11.9945ZM1 15.5002C1 16.7124 1.10458 17.8903 1.22394 19.006L3.2126 18.7933C3.09528 17.6968 3 16.6036 3 15.5002H1ZM15.7765 11.9945C15.5661 10.0275 13.9916 8.45529 12.03 8.23664L11.8084 10.2243C12.842 10.3395 13.6777 11.1776 13.7879 12.2072L15.7765 11.9945ZM12.03 22.7639C13.9916 22.5452 15.5661 20.973 15.7765 19.006L13.7879 18.7933C13.6777 19.8229 12.842 20.661 11.8084 20.7762L12.03 22.7639ZM4.9705 8.23664C3.0089 8.45529 1.43439 10.0275 1.22394 11.9945L3.21259 12.2072C3.32276 11.1776 4.15844 10.3395 5.19206 10.2243L4.9705 8.23664ZM5.19206 20.7762C4.15844 20.6609 3.32276 19.8229 3.2126 18.7933L1.22394 19.006C1.43439 20.973 3.0089 22.5452 4.9705 22.7639L5.19206 20.7762Z" fill="#243138"/>
<path d="M10.1256 14.5901C11.0231 14.5901 11.7506 13.8626 11.7506 12.9651C11.7506 12.0676 11.0231 11.3401 10.1256 11.3401C9.22812 11.3401 8.50058 12.0676 8.50058 12.9651C8.50058 13.8626 9.22812 14.5901 10.1256 14.5901Z" stroke="#243138" stroke-width="2" stroke-linecap="round" stroke-linejoin="round"/>
<path d="M5.08173 21.7701C3.58412 21.6032 2.37902 20.3981 2.21872 18.8998C2.12148 17.9909 2.03668 17.0622 2.00952 16.1176C2.43303 16.0518 2.8612 16.0192 3.29009 16.0204C5.10446 15.9794 6.87439 16.5843 8.28408 17.7273C9.59147 18.7874 10.5101 20.2462 10.9037 21.8753C10.1153 21.9488 9.31342 22.0006 8.50069 22.0006C7.33623 22.0006 6.1941 21.8941 5.08173 21.7701Z" stroke="#243138" stroke-width="2" stroke-linecap="round" stroke-linejoin="round"/>
<path d="M10.9029 21.8752C11.2441 21.8434 11.5828 21.8076 11.9188 21.7701C13.4164 21.6032 14.6215 20.3981 14.7818 18.8998C14.7996 18.7334 14.817 18.5664 14.8337 18.3987C14.1233 18.2006 13.3885 18.1001 12.6496 18.1005C11.5304 18.0981 10.4226 18.3246 9.39426 18.7661L9.39426 18.8351C10.1151 19.719 10.6327 20.757 10.9029 21.8752Z" stroke="#243138" stroke-width="2" stroke-linecap="round" stroke-linejoin="round"/>
<path fill-rule="evenodd" clip-rule="evenodd" d="M18.0212 2C18.5735 2 19.0212 2.44772 19.0212 3V5H21C21.5523 5 22 5.44772 22 6C22 6.55228 21.5523 7 21 7H19.0212V9C19.0212 9.55228 18.5735 10 18.0212 10C17.4689 10 17.0212 9.55228 17.0212 9V7H15C14.4477 7 14 6.55228 14 6C14 5.44772 14.4477 5 15 5H17.0212V3C17.0212 2.44772 17.4689 2 18.0212 2Z" fill="#243138"/>
</svg>
