<svg width="20" height="20" viewBox="0 0 20 20" fill="none" xmlns="http://www.w3.org/2000/svg">
<path d="M18.6979 5.2931L17.7036 5.39948L18.6979 5.2931ZM14.7338 1.31876L14.8445 0.324916L14.7338 1.31876ZM14.7338 18.6811L14.623 17.6873L14.7338 18.6811ZM18.6979 14.7068L17.7036 14.6004L18.6979 14.7068ZM5.26588 1.31876L5.15511 0.324917L5.26588 1.31876ZM1.30173 5.2931L2.29606 5.39948L1.30173 5.2931ZM5.26589 18.6811L5.37666 17.6873L5.26589 18.6811ZM1.30173 14.7068L2.29606 14.6004L1.30173 14.7068ZM9.99982 18.0003C8.44487 18.0003 6.90827 17.858 5.37666 17.6873L5.15511 19.675C6.70391 19.8476 8.33012 20.0003 9.99982 20.0003V18.0003ZM14.623 17.6873C13.0914 17.858 11.5548 18.0003 9.99982 18.0003V20.0003C11.6695 20.0003 13.2957 19.8476 14.8445 19.675L14.623 17.6873ZM19.6922 14.8132C19.8571 13.2721 20.0001 11.6573 20.0001 9.99994H18.0001C18.0001 11.5485 17.8664 13.0785 17.7036 14.6004L19.6922 14.8132ZM20.0001 9.99994C20.0001 8.34255 19.8571 6.72782 19.6922 5.18672L17.7036 5.39948C17.8664 6.9214 18.0001 8.45134 18.0001 9.99994H20.0001ZM9.99983 1.99963C11.5548 1.99963 13.0914 2.14189 14.623 2.31261L14.8445 0.324916C13.2957 0.15228 11.6695 -0.000366211 9.99983 -0.000366211V1.99963ZM5.37666 2.31261C6.90827 2.14189 8.44487 1.99963 9.99983 1.99963V-0.000366211C8.33012 -0.000366211 6.70391 0.15228 5.15511 0.324917L5.37666 2.31261ZM0.307405 5.18672C0.142525 6.72782 -0.000488281 8.34255 -0.000488281 9.99994H1.99951C1.99951 8.45134 2.13323 6.9214 2.29606 5.39948L0.307405 5.18672ZM-0.000488281 9.99994C-0.000488281 11.6573 0.142526 13.2721 0.307405 14.8132L2.29606 14.6004C2.13323 13.0785 1.99951 11.5485 1.99951 9.99994H-0.000488281ZM19.6922 5.18672C19.4201 2.64345 17.3821 0.607768 14.8445 0.324916L14.623 2.31261C16.2326 2.49202 17.5318 3.79354 17.7036 5.39948L19.6922 5.18672ZM14.8445 19.675C17.3821 19.3921 19.4201 17.3564 19.6922 14.8132L17.7036 14.6004C17.5318 16.2064 16.2326 17.5079 14.623 17.6873L14.8445 19.675ZM5.15511 0.324917C2.61751 0.607768 0.579505 2.64345 0.307405 5.18672L2.29606 5.39948C2.46787 3.79354 3.76705 2.49202 5.37666 2.31261L5.15511 0.324917ZM5.37666 17.6873C3.76705 17.5079 2.46787 16.2064 2.29606 14.6004L0.307405 14.8132C0.579505 17.3564 2.61751 19.3921 5.15511 19.675L5.37666 17.6873Z" fill="#243138"/>
<path d="M12.25 8.73969C13.4926 8.73969 14.5 7.73233 14.5 6.48969C14.5 5.24704 13.4926 4.23969 12.25 4.23969C11.0074 4.23969 10 5.24704 10 6.48969C10 7.73233 11.0074 8.73969 12.25 8.73969Z" stroke="#243138" stroke-width="2" stroke-linecap="round" stroke-linejoin="round"/>
<path d="M5.26602 18.6811C3.19242 18.45 1.52382 16.7814 1.30187 14.7068C1.16723 13.4484 1.04981 12.1624 1.01221 10.8545C1.59861 10.7634 2.19145 10.7183 2.78529 10.7199C5.2975 10.6631 7.74816 11.5007 9.70003 13.0833C11.5103 14.5511 12.7822 16.5711 13.3272 18.8267C12.2355 18.9284 11.1253 19.0002 9.99996 19.0002C8.38763 19.0002 6.80622 18.8528 5.26602 18.6811Z" stroke="#243138" stroke-width="2" stroke-linecap="round" stroke-linejoin="round"/>
<path d="M13.3266 18.8267C13.7991 18.7827 14.2681 18.733 14.7333 18.6812C16.8069 18.45 18.4755 16.7814 18.6975 14.7068C18.7221 14.4765 18.7462 14.2452 18.7693 14.0131C17.7856 13.7387 16.7682 13.5995 15.7451 13.6001C14.1956 13.5968 12.6617 13.9104 11.2378 14.5218L11.2378 14.6173C12.2359 15.8412 12.9525 17.2784 13.3266 18.8267Z" stroke="#243138" stroke-width="2" stroke-linecap="round" stroke-linejoin="round"/>
</svg>
