<svg width="79" height="79" fill="none" xmlns="http://www.w3.org/2000/svg"><g clip-path="url(#clip0)" fill="#243138"><path d="M79 14.503a1.54 1.54 0 00-.452-1.09L65.588.452a1.543 1.543 0 00-2.182 0L53.21 10.646a4.826 4.826 0 00-1.014-1.486 4.86 4.86 0 00-6.863 0l-8.502 8.501c-2.726 2.726-3.693 6.248-4.628 9.654-.361 1.315-.706 2.567-1.14 3.748-1.193.44-2.466.791-3.77 1.149-3.396.931-6.907 1.894-9.632 4.62L9.16 45.334a4.859 4.859 0 000 6.864 4.83 4.83 0 001.486 1.014L.452 63.406a1.543 1.543 0 000 2.182l12.96 12.96a1.543 1.543 0 002.182 0l9.697-9.696a4.857 4.857 0 003.742-2.243 4.854 4.854 0 006.621-1.549c.735.45 1.599.708 2.522.708a4.82 4.82 0 003.43-1.424 4.838 4.838 0 001.235-2.085 4.86 4.86 0 006.81-4.442v-8.693h3.505a4.859 4.859 0 004.52-6.621 4.859 4.859 0 004.465-6.621h.543a4.859 4.859 0 004.512-6.64 4.86 4.86 0 004.416-4.835 4.83 4.83 0 00-.273-1.604l7.21-7.209c.288-.29.451-.681.451-1.09zM14.503 75.275L3.725 64.497l12.3-12.3 4.056-4.055v15.87c0 1.55.73 2.931 1.865 3.82l-7.443 7.443zm38.653-29.237H49.11c-.468 0-.911-.185-1.247-.52a1.754 1.754 0 01-.52-1.247 1.77 1.77 0 011.767-1.768h4.045a1.77 1.77 0 011.767 1.768 1.77 1.77 0 01-1.767 1.767zm4.465-6.62H51.55a1.77 1.77 0 01-1.767-1.768c0-.469.185-.912.52-1.247a1.755 1.755 0 011.247-.521h6.071a1.77 1.77 0 011.768 1.768 1.77 1.77 0 01-1.768 1.767zm5.063-6.622h-7.66a1.77 1.77 0 01-1.767-1.767c0-.469.185-.912.521-1.247a1.755 1.755 0 011.247-.521h7.659a1.77 1.77 0 011.767 1.767 1.77 1.77 0 01-1.767 1.768zm4.075-6.62h-6.072a1.77 1.77 0 01-1.767-1.768c0-.469.185-.912.521-1.248.336-.335.779-.52 1.247-.52h6.07a1.77 1.77 0 011.768 1.767 1.77 1.77 0 01-1.767 1.768zm2.665-5.822a4.824 4.824 0 00-2.665-.8h-6.071a4.82 4.82 0 00-3.43 1.424 4.82 4.82 0 00-1.423 3.43c0 .623.118 1.22.333 1.767h-1.143a4.82 4.82 0 00-3.43 1.424 4.82 4.82 0 00-1.424 3.43c0 .662.134 1.295.376 1.871a4.83 4.83 0 00-2.426 1.32 4.82 4.82 0 00-1.424 3.43c0 .774.182 1.507.507 2.158a4.86 4.86 0 00-2.946 4.463 4.82 4.82 0 001.424 3.429c.27.27.567.503.883.7v9.417a1.77 1.77 0 01-1.768 1.767 1.77 1.77 0 01-1.767-1.767v-2.78a1.543 1.543 0 00-3.086 0v5.878c0 .468-.185.91-.52 1.246-.337.336-.78.521-1.248.521a1.77 1.77 0 01-1.768-1.767v-2.78a1.543 1.543 0 00-3.086 0v4.327a1.77 1.77 0 01-1.767 1.768 1.77 1.77 0 01-1.768-1.768v-2.78a1.543 1.543 0 10-3.086 0v4.33a1.77 1.77 0 01-1.767 1.767 1.77 1.77 0 01-1.768-1.768V44.417a1.543 1.543 0 00-2.634-1.091l-6.69 6.69a1.758 1.758 0 01-1.25.514c-.475 0-.918-.183-1.25-.514a1.77 1.77 0 010-2.5l8.502-8.501c2.147-2.148 5.12-2.963 8.265-3.826 3.336-.915 6.785-1.861 9.42-4.497l2.444-2.444a1.543 1.543 0 00-2.182-2.182l-2.444 2.444a7.93 7.93 0 01-.367.345l.2-.722c.867-3.158 1.686-6.14 3.834-8.29l8.502-8.5a1.77 1.77 0 012.5 0c.33.33.513.775.513 1.25 0 .474-.182.918-.514 1.25l-2.404 2.404a1.543 1.543 0 102.182 2.182l2.404-2.404 12.3-12.3 10.778 10.778-5.851 5.851z"/><path d="M43.792 20.705a1.544 1.544 0 101.543 1.543v-.001c0-.852-.691-1.542-1.543-1.542z"/></g><defs><clipPath id="clip0"><path fill="#fff" d="M0 0h79v79H0z"/></clipPath></defs></svg>