<svg width="75" height="94" fill="none" xmlns="http://www.w3.org/2000/svg"><path d="M74.954 50.987c0-6.686-1.694-13.45-4.906-19.614 2.703-8.536 4.645-17.8 1.454-27.829a5.082 5.082 0 00-3.84-3.441 5.002 5.002 0 00-4.788 1.608L51.686 12.638l-.124.133a.585.585 0 01-.684.152c-4.145-1.8-8.488-2.713-12.91-2.713-4.649 0-9.244 1.005-13.658 2.989a.579.579 0 01-.683-.152l-.071-.084-11.83-11.117A4.996 4.996 0 006.951.254 5.086 5.086 0 003.111 3.7C.188 12.887 1.634 21.268 4.999 31.672 1.726 37.785 0 44.446 0 50.987c0 6.569 4.27 12.73 12.418 18.015-3.661 5.524-5.822 12.3-5.822 19.615 0 .866.03 1.744.092 2.609a1.97 1.97 0 003.929-.278 33.164 33.164 0 01-.083-2.33c0-6.584 1.96-12.67 5.268-17.597.482.266.97.53 1.474.79a75.165 75.165 0 007.816 3.476c-1.21 3.71-1.856 7.938-1.856 12.336 0 1.185.048 2.383.144 3.56a1.182 1.182 0 002.355-.192 41.759 41.759 0 01-.136-3.368c0-4.127.597-8.077 1.714-11.529 4.837 1.677 8.834 2.54 10.364 2.54 1.491 0 5.33-.829 9.994-2.442 1.097 3.429 1.684 7.343 1.684 11.431 0 1.123-.045 2.256-.136 3.368a1.182 1.182 0 102.355.192c.096-1.176.144-2.374.144-3.56 0-4.36-.638-8.55-1.828-12.236a73.796 73.796 0 007.996-3.58c.449-.235.885-.472 1.316-.712 3.278 4.913 5.218 10.972 5.218 17.522 0 .774-.028 1.558-.083 2.33a1.97 1.97 0 103.929.279c.061-.865.092-1.742.092-2.609 0-7.287-2.144-14.038-5.78-19.55 8.12-5.3 12.376-11.484 12.376-18.08zM56.058 68.32c-8.026 4.207-16.522 6.377-18.38 6.377-1.876 0-10.462-2.171-18.59-6.381-6.911-3.58-15.15-9.491-15.15-17.327 0-6.143 1.7-12.42 4.915-18.154l.424-.756-.27-.824C5.698 21.218 4.186 13.307 6.863 4.893c.185-.582.666-.737.864-.777.056-.011.136-.023.23-.023.239 0 .57.072.847.397l.072.084 11.832 11.12a4.544 4.544 0 005.215 1.097c3.904-1.754 7.956-2.643 12.045-2.643 3.877 0 7.693.803 11.34 2.388a4.5 4.5 0 005.185-1.135l11.19-10.93.125-.132a1.103 1.103 0 011.078-.375c.198.04.677.195.862.774 2.954 9.284.927 18.089-1.704 26.22l-.261.806.406.744c3.157 5.787 4.826 12.177 4.826 18.479 0 7.845-8.134 13.755-14.958 17.332z" fill="#243138"/><path d="M20.241 55.181a7.1 7.1 0 01-1.981-.28c-4.532-1.312-6.92-6.865-5.324-12.378s6.58-8.93 11.113-7.62c4.531 1.313 6.92 6.865 5.324 12.378-1.366 4.717-5.212 7.9-9.132 7.9zm1.803-18.197c-2.883 0-5.772 2.512-6.838 6.196-1.234 4.262.43 8.502 3.71 9.451 3.281.95 6.953-1.745 8.187-6.006 1.233-4.262-.432-8.502-3.712-9.451a4.835 4.835 0 00-1.347-.19zm32.68 18.197c-3.92 0-7.766-3.183-9.132-7.9-1.596-5.513.793-11.065 5.324-12.377 4.534-1.312 9.517 2.106 11.113 7.62 1.596 5.513-.792 11.065-5.324 12.377a7.09 7.09 0 01-1.981.28zm-6.862-8.557c1.233 4.261 4.905 6.955 8.186 6.007 3.28-.95 4.944-5.19 3.711-9.45-1.234-4.262-4.905-6.958-8.186-6.007-3.28.95-4.944 5.189-3.711 9.45z" fill="#243138"/><path d="M37.64 71.878c-2.02 0-9.44-1.876-16.428-5.462C12.15 61.763 7.357 56.07 7.357 49.956c0-5.426 1.504-10.958 4.349-15.996 4.296-8.575 11.272-12.504 15.051-14.084l.166-.07c3.542-1.578 7.228-2.377 10.955-2.377 3.543 0 7.025.725 10.349 2.156.109.047 11.282 5.547 15.119 14.158 2.781 5.07 4.25 10.675 4.25 16.213 0 6.114-4.732 11.805-13.686 16.457-6.906 3.588-14.263 5.465-16.27 5.465zm.238-52.086c-3.394 0-6.756.731-9.993 2.173a9.687 9.687 0 01-.216.091c-3.48 1.455-9.91 5.077-13.863 12.988l-.028.053c-2.654 4.692-4.057 9.83-4.057 14.86 0 6.532 6.836 11.413 12.57 14.356 6.686 3.433 13.79 5.202 15.35 5.202 1.546 0 8.577-1.769 15.18-5.2 5.663-2.941 12.413-7.82 12.413-14.358 0-5.158-1.377-10.386-3.983-15.119l-.046-.092c-3.116-7.052-12.344-12.315-13.912-12.99-3.028-1.303-6.195-1.964-9.415-1.964z" fill="#243138"/><path d="M21.252 48.224a4.58 4.58 0 01-4.574-4.575 1.182 1.182 0 112.363 0c0 1.22.992 2.211 2.211 2.211 1.22 0 2.212-.992 2.212-2.211a1.182 1.182 0 112.363 0 4.58 4.58 0 01-4.575 4.575zm32.451 0a4.58 4.58 0 01-4.575-4.575 1.182 1.182 0 112.363 0c0 1.22.992 2.211 2.212 2.211 1.22 0 2.211-.992 2.211-2.211a1.182 1.182 0 112.363 0 4.58 4.58 0 01-4.574 4.575zM42.83 54.057a4.143 4.143 0 01-3.961-2.954c1.015-.631 2.15-1.725 2.15-2.97 0-1.956-1.586-2.522-3.542-2.522-1.956 0-3.542.566-3.542 2.522 0 1.245 1.135 2.339 2.15 2.97a4.143 4.143 0 01-3.962 2.954 1.182 1.182 0 100 2.363 6.497 6.497 0 005.354-2.82 6.497 6.497 0 005.354 2.82 1.182 1.182 0 000-2.363zM11.443 24.086a1.182 1.182 0 01-.15-2.354l2.067-.265c-1.91-2.922-3.292-6.933-3.362-7.138a1.181 1.181 0 012.237-.764c.019.057 1.958 5.686 4.17 7.995a1.181 1.181 0 01-.703 1.99l-4.108.526a1.29 1.29 0 01-.151.01zm52.069 0c-.05 0-.1-.003-.152-.01l-4.108-.527a1.181 1.181 0 01-.703-1.99c2.212-2.307 4.151-7.937 4.17-7.993a1.182 1.182 0 012.237.763c-.07.205-1.45 4.216-3.362 7.138l2.066.265a1.181 1.181 0 01-.148 2.354zm-28.629 3.713a1.97 1.97 0 01-.418-3.894 25.267 25.267 0 014.7-.545 1.961 1.961 0 012.02 1.916 1.969 1.969 0 01-1.915 2.02 21.335 21.335 0 00-3.966.457c-.14.03-.282.046-.421.046zm-6.35 2.594a1.969 1.969 0 01-1.008-3.662c.412-.245.823-.476 1.222-.688a1.97 1.97 0 011.848 3.478c-.344.183-.7.383-1.058.596a1.958 1.958 0 01-1.004.276z" fill="#243138"/></svg>