<svg width="83" height="83" fill="none" xmlns="http://www.w3.org/2000/svg"><g clip-path="url(#clip0)"><path d="M76.176 52.595c-1.473-2.94-4.635-6.857-7.198-8.92l-3.923-3.155c-1.221-3.004-2.932-6.133-4.961-9.085l2.914-1.643c3.103-1.751 6.073-5.84 6.761-9.31l1.046-5.273a2.026 2.026 0 00-3.974-.788l-1.045 5.274c-.46 2.323-2.694 5.392-4.778 6.568l-3.369 1.901a47.619 47.619 0 00-2.258-2.595 41.145 41.145 0 00-3.684-3.487l2.587-1.459c1.804-1.018 2.968-2.656 3.192-4.494.224-1.838-.513-3.707-2.02-5.129l-4.7-4.431a2.026 2.026 0 00-2.779 2.947l4.7 4.432c.569.536.845 1.137.778 1.691-.068.554-.48 1.072-1.162 1.456l-4.218 2.38c-2.913-1.778-5.806-2.77-8.57-2.929l2.353-5.63a2.025 2.025 0 00-3.738-1.562l-2.517 6.025-4.841-4.382a2.025 2.025 0 00-2.719 3.002l4.524 4.096c-2.435 1.319-4.63 3.446-6.511 6.294l-4.83-.36c-.781-.059-1.374-.351-1.671-.824-.296-.473-.302-1.134-.015-1.862l2.37-6.009a2.026 2.026 0 00-3.769-1.486l-2.37 6.01c-.76 1.927-.631 3.932.353 5.5.984 1.569 2.734 2.557 4.8 2.71l2.962.221a41.099 41.099 0 00-1.852 4.723 47.268 47.268 0 00-.94 3.309l-3.858-.288c-2.386-.178-5.712-2.007-7.117-3.914L6.94 27.79a2.026 2.026 0 00-3.261 2.402l3.189 4.33c2.097 2.848 6.524 5.285 10.077 5.55l3.337.25c-.582 3.533-.8 7.093-.628 10.33l-2.21 4.526c-1.442 2.956-2.638 7.846-2.72 11.132l-.317 12.462a2.025 2.025 0 104.049.103l.316-12.462c.063-2.485.966-6.35 2.033-8.843 3.605 11.687 15.687 18.85 27.827 16.141 12.139-2.709 20.029-14.33 18.323-26.44 2.026 1.801 4.486 4.916 5.6 7.138l5.584 11.145a2.026 2.026 0 003.621-1.815l-5.584-11.144zM30.859 28.33c1.387-4.264 3.559-7.016 5.959-7.552 2.4-.535 5.536 1.032 8.604 4.301 2.883 3.072 5.212 7.148 5.935 10.384 1.32 5.915-2.418 11.801-8.333 13.121-5.915 1.32-11.801-2.418-13.121-8.333-.723-3.236-.347-7.915.956-11.921zm16.89 41.427C37.164 72.12 26.631 65.43 24.27 54.846a26.454 26.454 0 01-.555-4.02c-.243-3.65.086-7.819.937-11.868l.013-.06c.244-1.157.531-2.303.86-3.425-.08 2.054.055 4.005.425 5.662 1.807 8.095 9.862 13.21 17.957 11.404 8.095-1.807 13.21-9.863 11.404-17.957-.37-1.657-1.076-3.481-2.022-5.305a46.22 46.22 0 012.237 2.736l.035.047c2.49 3.3 4.56 6.932 5.89 10.335a26.49 26.49 0 011.21 3.883c2.363 10.584-4.326 21.117-14.91 23.48z" fill="#243138"/></g><defs><clipPath id="clip0"><path fill="#fff" transform="rotate(-12.582 69.429 6.851)" d="M0 0h69.133v69.133H0z"/></clipPath></defs></svg>