<svg width="102" height="102" fill="none" xmlns="http://www.w3.org/2000/svg"><path d="M54.978 75.868c.225-.356.294-.789.193-1.197L37.714 9.521a1.42 1.42 0 00-1.812-.999L13.076 14.64c-.816.218-1.325.965-1.106 1.78l17.457 65.15c.088.407.345.757.704.965l8.472 4.581.809 3.02-.8.214a1.474 1.474 0 00-.896 2.262l4.274 6.44a1.48 1.48 0 001.657.58l8.417-2.256a1.486 1.486 0 001.143-1.34l.473-7.746a1.428 1.428 0 00-.546-1.228 1.487 1.487 0 00-1.35-.242l-.977.263-.818-3.052 4.99-8.162zM35.181 11.882l.735 2.743-19.837 5.315-.735-2.743 19.837-5.315zM16.87 22.895l19.837-5.316 15.34 57.25-4.616 7.73-7.215 1.932-8.008-4.353L16.87 22.895zm33.338 71.81l-6.29 1.686-2.466-3.636 9.073-2.431-.318 4.382zm-7.843-5.362l-.566-2.11 5.487-1.47.566 2.11-5.487 1.47z" fill="#243138"/><path d="M35.805 67.391a1.53 1.53 0 001.082-1.873l-8.6-32.1a1.53 1.53 0 00-2.956.793l8.601 32.099a1.529 1.529 0 001.873 1.081zm6.753-1.809a1.53 1.53 0 001.081-1.873l-6.18-23.065a1.53 1.53 0 00-2.955.792l6.18 23.065a1.53 1.53 0 001.874 1.08zM62.474 5.926L51.979 8.738l-.76-2.836a1.53 1.53 0 00-2.954.792l22.554 84.171a1.53 1.53 0 002.954-.791L57.86 30.684l10.494-2.812a3.988 3.988 0 001.358-7.046c.728-1.69.2-3.658-1.274-4.757a3.969 3.969 0 00-1.275-4.755 3.925 3.925 0 00.195-2.583 3.98 3.98 0 00-4.884-2.805zm.791 2.954a.874.874 0 11.453 1.688L53.223 13.38l-.452-1.688L63.265 8.88zm2.4 5.351a.979.979 0 01-.647 1.191l-10.494 2.812-.509-1.9 10.494-2.811a.978.978 0 011.155.708zm1.271 4.748a.884.884 0 01-.674 1.085l-10.494 2.812-.453-1.688 10.495-2.812a.885.885 0 011.126.602zm.626 5.939L57.069 27.73l-.509-1.9 10.495-2.812a.985.985 0 01.508 1.9z" fill="#243138"/></svg>