<svg width="102" height="102" fill="none" xmlns="http://www.w3.org/2000/svg"><g clip-path="url(#clip0)"><path d="M50.196 41.139l1.518 5.666a4.4 4.4 0 008.5-2.277l-1.518-5.667a4.4 4.4 0 00-8.5 2.278zm6.148 5.944a1.468 1.468 0 01-1.797-1.037l-.38-1.417 2.834-.759.38 1.417a1.469 1.469 0 01-1.038 1.796zm-.482-7.463l.38 1.417-2.834.759-.38-1.417a1.467 1.467 0 012.834-.759z" fill="#243138"/><path d="M36.28 17.536a1.467 1.467 0 00-1.038 1.796l3.596 13.42c-2.463 4.485-2.021 9.458-1.013 13.22 2.811 10.492 7.17 16.621 10.056 20.678 1.397 1.965 2.5 3.517 2.823 4.72l6.453 24.084a7.341 7.341 0 008.981 5.185l8.5-2.277a7.341 7.341 0 005.186-8.982l-6.453-24.084c-.322-1.202-.142-3.098.085-5.499.47-4.955 1.18-12.444-1.63-22.936-1.009-3.761-3.112-8.289-7.488-10.943L60.742 12.5a1.467 1.467 0 10-2.833.759l.76 2.833-2.834.76-.76-2.834a1.467 1.467 0 10-2.833.76l.76 2.832-2.834.76-.76-2.834a1.467 1.467 0 00-2.833.76l.76 2.833-2.834.76-.759-2.834a1.467 1.467 0 10-2.833.759l.759 2.833-2.834.76-.759-2.834a1.467 1.467 0 00-1.796-1.037zm29.024 12.942c-1.692 2.52-3.186 6.664-2.293 13.112 1.769 12.786 1.151 16.582-2.872 17.66-4.023 1.078-6.455-1.9-11.317-13.858-2.45-6.03-5.816-8.873-8.542-10.21 1.561-6.841 8.232-9.258 10.749-9.933 2.517-.674 9.502-1.916 14.275 3.229zm5.232 29.042c-.256 2.695-.457 4.823.002 6.536l6.453 24.083a4.405 4.405 0 01-3.112 5.39l-8.5 2.277a4.405 4.405 0 01-5.389-3.111L53.537 70.61c-.459-1.713-1.698-3.455-3.266-5.66-2.928-4.118-6.938-9.756-9.613-19.739a19.392 19.392 0 01-.707-4.858c2.022 1.274 4.334 3.665 6.154 8.142 2.318 5.701 4.178 9.764 6.286 12.402 2.42 3.029 5.203 4.07 8.508 3.185 3.304-.885 5.194-3.179 5.775-7.012.507-3.339.086-7.787-.757-13.883-.663-4.788.144-8.014 1.258-10.128a19.401 19.401 0 011.817 4.56c2.675 9.982 2.021 16.87 1.544 21.9zm-9.64-35.116a16.372 16.372 0 00-1.08-.284c-3.997-.897-7.697-.2-9.546.296-1.85.496-5.403 1.741-8.415 4.516-.28.258-.542.521-.793.787l-1.468-5.48 19.833-5.314 1.468 5.48z" fill="#243138"/><path d="M16.499 45.5c-.312-1.482-.325-2.76-.119-3.858 1.326-7.064 14.516-2.843 10.402 3.05-2.837 4.062-9.115 6.354-10.283.808zM30.634 9.584c.119-4.441 2.334-6.577 4.822-7.477 3.292-1.191 7.64.686 7.779 4.185.259 6.546-12.812 11.215-12.6 3.292z" stroke="#243138" stroke-width="3"/><path d="M9.134 18.79c.033-1.207.343-2.108.813-2.773 2.022-2.858 7.62.406 5.398 3.112-1.867 2.275-6.303 3.114-6.21-.339z" stroke="#243138" stroke-width="2"/></g><defs><clipPath id="clip0"><path fill="#fff" d="M0 0h102v102H0z"/></clipPath></defs></svg>